<?xml version="1.0" encoding="UTF-8"?> <svg xmlns="http://www.w3.org/2000/svg" width="400" height="400" viewBox="0 0 400 400" fill="none"><path d="M310.168 123.392C310.168 154.425 298.459 178.017 275.04 194.179C251.952 210.017 220.452 217.938 180.541 217.938H137.992V360.971H90V40H196.373C229.687 40 256.899 47.4292 278.009 62.3C299.449 77.1667 310.168 97.5292 310.168 123.392ZM137.992 203.879H182.025C197.528 203.879 210.722 200.971 221.606 195.15C232.821 189.333 240.902 181.896 245.85 172.846C254.755 156.683 259.208 141.008 259.208 125.817C259.208 118.379 257.229 109.492 253.271 99.15C245.355 77.8167 229.028 63.9167 204.29 57.4542C180.541 57.4542 158.442 60.1959 137.992 65.6959V203.879Z" fill="url(#paint0_linear_104_107)"></path><path d="M310.168 123.392C310.168 154.425 298.459 178.017 275.04 194.179C251.952 210.017 220.452 217.938 180.541 217.938H137.992V360.971H90V40H196.373C229.687 40 256.899 47.4292 278.009 62.3C299.449 77.1667 310.168 97.5292 310.168 123.392ZM137.992 203.879H182.025C197.528 203.879 210.722 200.971 221.606 195.15C232.821 189.333 240.902 181.896 245.85 172.846C254.755 156.683 259.208 141.008 259.208 125.817C259.208 118.379 257.229 109.492 253.271 99.15C245.355 77.8167 229.028 63.9167 204.29 57.4542C180.541 57.4542 158.442 60.1959 137.992 65.6959V203.879Z" fill="url(#paint1_linear_104_107)"></path><defs><linearGradient id="paint0_linear_104_107" x1="90" y1="369.304" x2="310.168" y2="369.304" gradientUnits="userSpaceOnUse"><stop stop-color="#7D6F56"></stop><stop offset="1" stop-color="#8A7C64"></stop></linearGradient><linearGradient id="paint1_linear_104_107" x1="90" y1="367.498" x2="310.168" y2="367.498" gradientUnits="userSpaceOnUse"><stop stop-color="#786A50"></stop><stop offset="0.575" stop-color="#DCD3BD"></stop><stop offset="1" stop-color="#756C50"></stop></linearGradient></defs></svg> 