<svg xmlns="http://www.w3.org/2000/svg" width="401" height="152" fill="none" viewBox="0 0 401 152"><g fill="#000" clip-path="url(#a)"><path fill-opacity=".984" d="M273.133 121.369c4.686.089 13.003-.779 16.823 1.542 6.975 4.237 5.528 13.773-2.465 15.936 2.552 3.894 5.933 8.508 8.661 12.31-.895.014-1.876-.022-2.779-.038l-1.096-1.539-7.149-10.248c-3.06.009-6.718.109-9.733-.065-.161 3.61-.041 8.272-.059 11.949l-2.183-.072c-.149-9.832-.032-19.933-.02-29.775m2.219 16.599c4.64.022 10.741.768 14.256-2.324 4.852-5.27 1.5-12.499-5.451-12.851-2.876-.146-5.931.144-8.735-.125-.217 5.025.045 10.263-.07 15.3m-132.028-16.589c6.176-.025 18.157-1.552 21.035 5.444 3.068 7.455-2.369 13.023-10.031 13.272l-8.695.011q.038 5.558-.067 11.115l-2.223-.074zm2.271 17.372c5.319.061 10.735.991 14.83-2.359 1.108-1.299 2.256-2.972 2.297-4.716.261-11.059-10.673-8.526-17.072-8.98-.019 4.991.141 11.143-.055 16.055m35.164-17.391c.478-.005 1.069-.057 1.511.139.853.378 11.602 26.6 12.848 29.692l-2.508-.062c-1.116-2.758-2.413-5.463-3.534-8.276l-6.687-.003-9.265-.004c-.737 1.847-2.644 8.654-4.918 8.295-.225-.85 11.156-26.796 12.553-29.781m-6.989 20.187 7.64-.002 7.157-.007c-.782-1.832-7.002-16.775-7.585-17.248-1.95 4.69-5.095 12.92-7.212 17.257m139.488-20.173c1.004-.028 1.737-.186 2.183.889 3.993 9.635 8.378 19.237 12.21 28.926l-2.535-.068c-1.042-2.736-2.43-5.427-3.482-8.267l-6.69-.004-9.244-.011c-.977 2.083-2.381 6.283-3.405 8.04-.671.348-.628.224-1.488.2l-.155-.242c.349-1.395 3.206-7.675 3.914-9.306 2.912-6.689 5.737-13.496 8.692-20.157m-6.939 20.178 7.45-.006 7.352-.004a1119 1119 0 0 1-5.288-12.291c-.313-.737-1.907-4.632-2.156-5.022-.681 1.21-1.116 2.4-1.676 3.659-1.987 4.477-3.66 9.215-5.682 13.664M109.671 121.39c.485-.02 1.077-.089 1.534.094.828.33 11.416 26.24 12.879 29.721l-2.571-.094c-1.058-2.687-2.403-5.532-3.519-8.258l-6.681-.003-9.243.007c-.807 1.983-1.594 3.985-2.397 5.969-.469 1.157-1.115 2.523-2.553 2.313-.207-.623 11.234-26.851 12.551-29.749m-6.963 20.137 7.822.018 6.951-.007c-.842-1.974-7.054-16.839-7.551-17.264-2.181 5.202-4.872 12.279-7.222 17.253m232.566-20.204c.711.021 1.216.054 1.921.144.858.423 12.009 19.622 13.581 22.27l8.676-14.427c1.427-2.373 2.9-4.869 4.376-7.224.155-.245.581-.563.854-.653.726-.24.828-.193 1.441.056.256 1.018.18 7.422.18 8.994l-.041 20.729-2.172-.073c.092-7.78.026-15.769-.009-23.559l.009-3.279c-3.669 6.319-7.636 12.526-11.35 18.824-.468.794-1.729 3.02-2.569 3.258-1.57-1.056-12.126-19.242-13.506-22.05-.181 5.962.052 11.994-.046 17.956-.029 1.757.341 7.828-.507 9.028l-.317.029c-.254-.182-.478-.507-.483-.82-.069-3.062-.046-6.18-.049-9.241zm-131.183 2.683c-.122 3.696.303 25.49-.21 26.935-.065.178-.251.209-.419.287l-.421-.169-.286-.491c.028-9.126-.008-18.255-.029-27.38-.002-.739-.053-1.346.339-1.728 1.102-.039 1.727-.182 2.474.784 6.566 8.49 12.41 17.848 19.05 26.246-.19-4.438-.159-11.523-.006-15.977.654 1.608-.078 10.011.235 12.264.208 1.491.429 4.967.159 6.407-.807.014-1.349.014-1.853-.678-2.093-2.869-4.158-5.761-6.234-8.642a1853 1853 0 0 1-12.799-17.858m-157.653-2.645c.64.008 1.714-.075 2.195.259.227 2.667.098 7.141.098 10.007l-.03 18.195c2.035.046 16.63-.145 17.344.192l-.14.997c-.937.231-5.322.17-6.538.169l-12.957-.04c.297-9.313.026-20.318.028-29.779m26.972.024c.56-.003 1.687-.086 2.078.244.227 2.807.09 7.036.09 10.012l-.028 18.186c4.003.049 8.045-.011 12.045.024.977.008 4.556-.067 5.35.101l-.14 1.106c-1.358.187-5.21.112-6.675.111l-12.728-.013zm-39.8 29.729-.182-.053c-.147-.266-.356-27.803-.056-29.455.426-.341.788-.205 1.448-.187l-.003.123c-.048 3.057.453 28.153-.127 29.328-.402.124-.674.172-1.08.244"/><path fill-opacity=".969" d="M224.583 132.513c-.077-1.867-.392-9.803.442-10.965l.312-.027c.759.939.472 8.633.472 10.48l.007 18.857-.24.302-.6.024c.271-1.44.049-4.916-.158-6.407-.313-2.253.419-10.656-.235-12.264"/><path fill-opacity=".973" d="m34.819 121.419.601.124c.284 1.07.094 7.94.095 9.399l.005 12.632c0 2.234.077 5.146-.078 7.326-.404.474-1.234.281-1.833.214.406-.072.678-.12 1.08-.244.58-1.175.078-26.271.127-29.329z"/><path fill-opacity=".988" d="M195.314 0h.603c.505 2.432.856 7.605 1.126 10.28l2.13 21.154c-.015.763.194 3.18.425 3.891l.076.428c.357.237.668.163 1.115.138.184-1.168.405-2.391.43-3.568.46-3.012.648-6.606.987-9.674.826-7.482 1.322-15.199 2.299-22.649h.689c.229 1.346-.315 5.702-.474 7.293l-1.455 14.651c-.182 1.85-.655 5.609-.663 7.351-.3 1.196-.623 5.5-.641 6.85.198-.871.997-4.187 1.011-4.92l3.99-19.966c.349-1.742 1.608-9.563 2.477-10.358l.223.136c.421 1.977-4.838 25.743-5.566 29.986-.433 1.587-.848 3.539-.938 5.18q.751-2.308 1.388-4.65l6.362-20.805c.354-1.163 2.255-8.352 2.948-8.766l.439.133c.264.857-1.224 4.87-1.57 6.007l-5.583 18.423c-.8 2.644-2.345 7.205-2.86 9.764 1.562-3.42 12.96-32.076 13.976-32.846.239.138.298.128.372.41.247.951-11.981 29.267-13.338 32.804 1.044-1.337 3.857-6.866 4.791-8.62a1425 1425 0 0 1 8.993-16.722c.905-1.662 2.217-4.706 3.554-5.919l.157.182c-.327 2.213-3.125 6.683-4.339 8.948l-7.668 14.327c-1.3 2.432-3.248 5.81-4.298 8.27 1.806-2.375 3.795-5.538 5.473-8.054l9.538-14.248c.906-1.34 3.81-6.12 4.961-6.69l.247.147a2.34 2.34 0 0 1-.329 1.072c-6.078 9.613-13.33 19.11-19.218 28.774 3.076-3.4 21.411-26.603 23.171-27.465l.249.061c.045.92-2.939 4.235-3.664 5.118l-12.362 15.019c-1.514 1.831-4.874 5.625-6.041 7.402l.217.021 18.28-18.26c1.156-1.143 5.401-5.589 6.448-6.322.454.012.278-.054.658.3-.147.678-2.207 2.584-2.859 3.26-7.148 7.401-14.714 14.46-21.888 21.834 1.846-1.12 5.619-4.37 7.462-5.877l13.61-11.155c1.447-1.19 5.061-4.376 6.614-4.99l.209.293c-1.511 2.02-7.221 6.343-9.535 8.235l-17.787 14.517c1.878-.84 6.617-4.145 8.475-5.39l14.444-9.656c1.649-1.096 5.001-3.521 6.749-4.023l.223.112c-1.713 2.932-27.688 17.929-28.645 19.699 1.492-.44 4.666-2.365 6.496-3.324 7.983-4.18 16.044-8.671 24.105-12.724l.429.074c.043.11.157.29.112.399-.29.7-26.817 14.82-29.774 16.086-.391.201-1.357.615-1.521.945.799-.132.965-.2 1.688-.568 3.518-1.497 30.155-12.874 31.512-12.716l.129.362c-.899 1.284-28.949 11.934-32.45 13.761 1.124.4 32.286-10.224 34.022-9.719-.522 1.241-6.578 2.697-8.194 3.185l-16.653 5.022c-2.637.79-6.97 1.943-9.424 2.961 3.76-.7 34.228-6.96 35.237-6.675l.176.282c-.724.875-9.304 2.242-10.887 2.57a1462 1462 0 0 1-24.365 4.782c4.625.14 34.602-3.637 35.824-3.035l.105.448c-.507.508-5.364.738-6.453.849l-21.104 2.135c-1.065.101-6.684.522-7.334.836 1.1.687 34.012-.573 35.109.5l-.039.317c-.96.573-31.536.093-35.571.384l.033.146c1.135.245 2.749.17 4.041.299l20.209 2.02c3.389.334 6.91.662 10.299 1.05.548.062.548.109.838.444l-.167.353c-1.674.516-31.527-3.096-35.87-3.28 2.208.74 8.051 1.727 10.64 2.231l20.028 3.982c-.599.521-1.547.437-2.375.466-.864-.027-7.256-1.36-8.515-1.608l-19.655-3.935c2.078.958 7.061 2.338 9.416 3.047l17 5.14c2.349.718 6.154 1.578 7.982 2.896-1.298.27-4.818-.91-6.232-1.338-7.883-2.38-15.791-4.733-23.666-7.144-.57-.174-1.281-.466-1.855-.435.206.37 7.603 3.846 8.273 3.728 2.849-.5 2.585.674 5.453 2.288 1.602.903 15.691 5.943 15.783 7.114-1.394.273-12.813-4.797-14.767-5.626 2.179 2.175 4.427 4.66 7.145 6.147 2.097 1.147 4.206 2.28 6.307 3.42-.564 1.037-1.39 2.276-2.031 3.296-.701-.539-1.844-1.358-2.7-1.525-1.132.547-.556 1.475-1.116 2.173-1.774-1.49-11.268-14.403-13.51-12.864-.593 1.224-.546 4.195-.582 5.646-1.38-2.38-4.928-6.497-7.033-8.228 1.046 3.682 2.72 7.488 3.828 11.305-3.479-3.14-6.606-6.478-9.986-9.702-.35-.334-.861-.53-1.335-.6-1.386.463-1.381 2.334-1.337 3.6.113 3.377-.094 6.861-.004 10.22-2.53-2.575-5.076-5.316-7.345-8.1-1.355-1.66-3.513-4.589-2.038-6.691.53-.755 1.484-.77 2.344-.914-.151-2.957-.964-6.016-.833-8.933.098-2.16 2.546-1.056 3.77-2.035.24-1.564-2.608-4.28-4.067-4.52-1.116-.183-2.935 1.465-3.742 2.28-2.586 2.59-6.826 5.59-7.667 9.327-.367 1.63 3.883 6.29 5.001 7.53 4.279 4.745 8.757 9.385 12.478 14.59-2.886-2.002-9.441-7.377-11.918-8.588-.179 1.264-.181 2.661-.213 3.947-1.209-1.294-3.63-3.277-5.044-4.362-.972 1.003-1.323 1.516-2.02 2.714.548 2.002 1.295 3.738 2.074 5.66-3.006-2.32-5.963-4.697-7.284-8.457-.351-1-.552-2.785-.059-3.745 1.716-1.13 3.538 1.113 4.765-.102.238-1.2-1.754-6.143-2.891-6.733-2.307-.132-6.273 3.084-8.1 4.523l3.456.017c-4.697 2.545-9.946 3.852-14.267 7.469-1.051.879-3.41 2.938-4.745 2.87-.488-.363-.361-.157-.461-.78.425-.873 2.742-1.835 3.79-2.515 2.987-1.94 6.776-4.758 9.317-7.189-2.064.704-14.217 6.054-15.126 5.84l.294.09-.262-.243c.208-.463 1.167-1.146 1.652-1.343 5.131-2.085 10.347-4.063 15.38-6.377 1.57-.722 3-2.047 4.289-3.185-3.623 1.271-19.988 6.552-22.844 6.503l-.059-.344-.249.244.317.077.094-.409c7.948-2.956 16.505-4.812 24.469-7.74.582-.213 1.615-1.111 1.96-1.406-2.591.547-26.575 5.484-27.552 5.242l-.168-.445c.717-.909 29.037-5.67 32.628-6.888l.037-.243c-1.714-.28-5.015.443-6.874.64-2.893.308-25.136 2.699-26.07 2.387-.293-.097-.291-.209-.425-.47.355-.387 1.366-.478 1.894-.519 10.873-.827 21.933-2.532 32.8-3.132l.071-.163c-.949-.67-29.56.115-33.135-.268-.555-.06-1.017-.021-1.662-.28l.185-.205c2.22-.706 15.19-.302 18.73-.455 5.643.065 11.934.143 17.565.021.171-.429.424-.344.451-.92-.162-.171-.673-.348-.924-.454.936.034 1.321.196 1.936-.341l-.072-.308c-.613-.358-.791-.35-1.511-.392-3.476-.997-33.233-9.677-34.453-10.589l-.012-.326c1.066-.447 6.28 1.43 7.768 1.877l18.303 5.473c1.403.42 6.667 2.162 7.737 2.35l.125-.13c-1.647-.89-6.17-2.568-8.147-3.384l-17.96-7.435c-1.736-.728-5.046-1.808-6.294-2.865l.2-.395-.322.203.204-.194c1.767.114 7.321 2.656 9.352 3.488l14.939 6.123c3.062 1.267 6.404 2.762 9.49 3.86-4.125-2.523-30.935-15.853-31.873-17.463l.238-.178c1.755-.186 26.982 14.618 31.226 16.142l.078-.091c-2.255-1.645-4.798-3.18-7.147-4.737L167.97 26.6c-2.247-1.501-4.451-3.101-6.767-4.501-.42-.254-.558-.474-.675-.922.946-.707 4.641 2.47 5.703 3.016 2.363 1.216 22.943 15.705 23.85 15.742-.319-.93-23.137-18.685-25.591-21.028-.431-.412-.96-.612-1.28-1.321l.269-.389c.917.034 7.082 5.346 8.148 6.213l14.318 11.639c.847.691 4.245 3.71 4.928 3.898-.222-.992-24.215-23.458-24.568-24.845l.319-.25h.423c6.27 5.855 18.756 18.518 24.249 23.958l.188-.088c-.288-.659-3.586-4.448-4.335-5.345l-11.858-14.408c-1.086-1.322-5.387-5.94-5.412-7.293l.32-.042c1.32.824 3.742 4.17 4.893 5.54l11.194 13.495c2.16 2.63 4.478 5.632 6.758 8.099-1.27-2.317-3.701-5.624-5.242-7.921l-9.667-14.452c-1.156-1.71-4.096-5.614-4.621-7.27l.125-.227c1.175.22 1.579 1.42 2.112 2.092 2.021 2.548 16.916 25.99 17.886 26.44-.106-.669-2.404-4.7-2.909-5.628l-9.017-16.826c-1.314-2.45-2.915-5.05-3.997-7.577-.237-.554-.18-.576.025-.987 1.195.652 3.384 5.388 4.133 6.777l8.257 15.308c1.523 2.845 3.32 6.51 5.013 9.146-1.38-4.425-13.689-31.5-13.332-33.335 1.127.375 3.432 6.81 4.062 8.313l6.377 15.26c1.257 3.04 2.626 6.686 4.068 9.566-.729-2.91-1.909-6.447-2.798-9.356l-5.011-16.402c-.742-2.426-1.683-5.364-2.368-7.84-.093-.337.155-.627.338-.85.338.07.41.007.552.45.815 2.541 1.598 5.246 2.377 7.785l5.399 17.622c.386 1.295 1.789 6.513 2.36 7.252.261.567.339.693.721 1.189.286-.31.211-1.153.231-1.67l.258.786.139.023c.041-1.623-.648-7.184-.83-9.003l-1.912-18.985c-.145-1.445-.775-6.409-.459-7.447m26.233 57.03c-.485-.685-3.726-1.906-4.554-2.095 1.343 1.524 2.369 2.568 4.554 2.096"/><path fill-opacity=".984" d="M247.222 152c-1.835-.522-3.229-.916-4.929-1.826-10.502-5.623-10.356-22.271.075-27.936a15.03 15.03 0 0 1 11.45-1.104 14.73 14.73 0 0 1 8.811 7.221c2.052 3.833 2.352 9.083 1.065 13.204a14.8 14.8 0 0 1-7.274 8.763c-1.631.838-2.984 1.173-4.72 1.678zm2.659-1.356c13.416-1.375 15.846-19.097 6.97-26.195a11.63 11.63 0 0 0-7.44-2.561c-17.211.925-16.166 28.866.47 28.756m129.18-7.78c-.822 2.099-2.545 7.591-4.259 8.559l-.432-.161c-.366-.751.188-2.153.583-2.791 2.297-3.719 9.978-25.263 12.046-27.021.76-.265 1.282-.192 1.703.61 1.044 1.982 1.855 4.138 2.728 6.209l6.344 15.051c.613 1.451 2.455 6.075 3.148 7.249l.079.129v.513l-2.487-.109c-.911-2.48-2.448-5.758-3.524-8.246zm.68-1.335 7.651.017 7.092-.001c-.838-2.02-6.79-16.494-7.571-17.29-2.178 5.431-4.778 11.979-7.172 17.274M0 121.369l2.644.034 7.007 17.236c1.232 3.026 2.644 6.763 4.01 9.679.626-2.013 1.495-4.02 2.296-5.977 2.707-6.603 5.325-13.246 8.085-19.827.173-.412.363-.819.763-1.044l.936-.019c.127.426.042.777-.154 1.174-1.733 3.511-10.762 27.794-12.086 28.445-.45-.001-.726.086-1.07-.248-1.151-1.119-8.818-20.558-10.081-23.591-.655-1.569-1.336-4.026-2.35-5.329z"/><path fill-opacity=".98" d="M184.806 44.902c-9.314-2.048-18.881-3.649-28.234-5.559-.982-.2-2.713-.656-3.459-1.32 2.225-.42 25.276 4.74 29.246 5.361 1.36.213 5.447 1.328 6.658 1.133.721.043.899.034 1.511.392l.072.308c-.614.537-.999.375-1.936.341-.242.032-3.23-.573-3.858-.656"/><path fill-opacity=".984" d="m184.984 46.436-19.997-1.945c-1.952-.189-11.179-.768-12.014-1.664l.208-.228c1.584-.288 7.933.508 10.001.707l20.078 1.957q3.171.324 6.329.75c-.027.575-.28.49-.45.92-.862-.341-3.125-.429-4.155-.497"/><path fill-opacity=".976" d="M197.168 35.107c.057-.774-.879-4.986-1.226-6.756-1.753-8.93-3.72-18.092-5.368-27.061l.194-.413c1.21.784 1.849 6.039 2.174 7.662l2.546 12.507c.337 1.66 2.597 12.376 2.632 13.58-.02.517.055 1.36-.231 1.67-.382-.496-.46-.622-.721-1.19M199.764 0h.93l.008 25.01c-.002 1.433-.121 9.93.086 10.88-.446.026-.758.1-1.114-.137l-.076-.428c.244-.802.148-9.113.147-10.566z"/><path fill-opacity=".102" d="M200.696 0h.239l-.018 21.12c.002 1.621-.193 10.601.304 11.203-.026 1.177-.247 2.4-.431 3.568-.207-.95-.088-9.448-.086-10.882z"/><path fill-opacity=".106" d="M199.551 0h.213l-.02 24.759c.002 1.453.098 9.764-.146 10.566-.231-.71-.441-3.128-.425-3.891.219-.261.374-.557.37-.903-.024-6.32-.043-12.644-.034-18.965.006-3.818-.117-7.759.042-11.566"/><path fill-opacity=".965" d="M242.41 55.26c1.291.223 3.82.574 4.803 1.375-.989.526-5.972-.532-7.178-.91.828-.03 1.776.055 2.375-.466"/><path fill-opacity=".204" d="M184.981 46.436c1.03.068 3.293.156 4.155.496-5.631.122-11.923.044-17.566-.021.617-.442 11.482-.067 13.271-.193z"/><path fill-opacity=".059" d="M202.601 29.295c.302 1.315-.272.994.37 1.93-.013.733-.812 4.049-1.01 4.92.018-1.35.341-5.654.64-6.85"/><path fill-opacity=".098" d="M184.804 44.902c.628.083 3.616.688 3.858.656.252.106.763.283.924.455a195 195 0 0 0-6.328-.75c.658-.052.979-.035 1.546-.361"/><path fill-opacity=".039" d="M203.16 36.204c.09-1.642.505-3.594.938-5.181l.45.53a98 98 0 0 1-1.388 4.65"/><path fill-opacity=".439" d="M212.719 41.765c-.722.368-.889.436-1.688.568.165-.33 1.13-.744 1.522-.945z"/></g><defs><clipPath id="a"><path fill="#fff" d="M0 0h401v152H0z"/></clipPath></defs></svg>