<svg width="70" height="56" viewBox="0 0 70 56" fill="none" xmlns="http://www.w3.org/2000/svg">
<path d="M31.7725 0C32.1435 1.80943 32.4012 5.65811 32.5996 7.64844L34.1631 23.3838C34.3236 23.1897 34.4374 22.9709 34.4346 22.7139C34.4173 18.0119 34.403 13.3068 34.4102 8.60449C34.4145 5.76453 34.3239 2.8322 34.4404 0H34.5967L34.583 18.4199C34.5844 19.4983 34.6526 25.6517 34.4746 26.2754C34.4751 26.2771 34.476 26.2786 34.4766 26.2803L34.5322 26.5986C34.6642 26.6877 34.7878 26.7171 34.9199 26.7227C34.7893 26.7167 34.6668 26.6869 34.5361 26.5986L34.4805 26.2803C34.6601 25.6817 34.5893 19.5009 34.5879 18.4199L34.6025 0H35.4512L35.4385 15.7129C35.4399 16.9186 35.296 23.5982 35.6611 24.0469C35.6427 24.9106 35.4837 25.8089 35.3496 26.667C35.3508 26.6742 35.3513 26.6811 35.3525 26.6875C35.4873 25.8232 35.6484 24.9175 35.667 24.0469C36.0049 21.8057 36.1428 19.1317 36.3916 16.8496C36.9984 11.2834 37.3625 5.54239 38.0801 0H38.5859C38.7542 1.00103 38.3548 4.24167 38.2383 5.42578L37.1699 16.3252C37.0362 17.7019 36.6884 20.4987 36.6826 21.7949C36.6821 21.7969 36.6812 21.7988 36.6807 21.8008C36.8986 22.7711 36.4807 22.5344 36.9512 23.2295C36.9412 23.77 36.3629 26.2028 36.2119 26.874C36.2118 26.8796 36.212 26.8852 36.2119 26.8906C36.3571 26.2426 36.944 23.7755 36.9541 23.2305L39.8848 8.37598C40.1408 7.08002 41.0656 1.26102 41.7041 0.669922L41.8682 0.771484C42.1768 2.24459 38.3142 19.924 37.7793 23.0801H37.7783L38.1094 23.4736C38.0313 23.7641 37.9516 24.0542 37.8701 24.3438C37.6262 25.2105 37.3664 26.0725 37.0908 26.9297C37.0907 26.9312 37.0909 26.9331 37.0908 26.9346C37.459 25.7897 37.7983 24.6353 38.1104 23.4736L42.7822 7.99609C43.0426 7.12995 44.4392 1.7826 44.9482 1.47461L45.2705 1.57324C45.4646 2.21068 44.372 5.19573 44.1172 6.04199L40.0166 19.748C39.4284 21.7154 38.2942 25.1086 37.916 27.0127C39.0636 24.4679 47.4343 3.14889 48.1807 2.57617C48.3561 2.67845 48.3995 2.67137 48.4541 2.88086C48.6339 3.59206 39.6555 24.6528 38.6582 27.2861C39.4249 26.2909 41.4909 22.1775 42.1768 20.873C44.3511 16.7112 46.5533 12.5642 48.7822 8.43262C49.4466 7.1957 50.4095 4.9313 51.3916 4.0293L51.5068 4.16504C51.2665 5.8118 49.2119 9.13655 48.3203 10.8213L42.6885 21.4805C41.7336 23.2892 40.303 25.8024 39.5322 27.6328C40.858 25.8658 42.3194 23.5133 43.5518 21.6416L50.5566 11.041C51.2224 10.0448 53.3545 6.48809 54.2002 6.06445L54.3818 6.17285C54.366 6.44576 54.282 6.74149 54.1396 6.9707C49.676 14.1226 44.3496 21.188 40.0254 28.3779C42.2846 25.849 55.7511 8.58636 57.0439 7.94531L57.2266 7.99023C57.2594 8.67463 55.0672 11.1407 54.5352 11.7979L45.4561 22.9707C44.3444 24.3332 41.8766 27.1565 41.0195 28.4785L41.1787 28.4941L54.6045 14.9082C55.4528 14.0585 58.57 10.7521 59.3398 10.2061C59.6735 10.2147 59.5443 10.166 59.8232 10.4297C59.7149 10.9339 58.2024 12.3515 57.7236 12.8545C52.4733 18.3605 46.9165 23.6119 41.6475 29.0977C43.0035 28.2643 45.7747 25.847 47.1279 24.7256L57.124 16.4268C58.1866 15.541 60.8409 13.1712 61.9814 12.7148L62.1357 12.9326C61.0254 14.4359 56.8327 17.6511 55.1328 19.0586L42.0693 29.8594C43.4484 29.2345 46.9282 26.7755 48.293 25.8486L58.9014 18.665C60.1123 17.8496 62.5743 16.045 63.8584 15.6719L64.0225 15.7559C62.7631 17.9379 43.6878 29.093 42.9834 30.4102C44.0792 30.0828 46.4103 28.6508 47.7549 27.9375C53.6178 24.8282 59.5385 21.4865 65.459 18.4717C65.5839 18.4935 65.6887 18.5126 65.7734 18.5273C65.8051 18.6085 65.8884 18.7424 65.8555 18.8232C65.6426 19.3437 46.1621 29.8482 43.9893 30.791C43.7016 30.9409 42.9919 31.2487 42.8711 31.4941C42.8723 31.4939 42.8738 31.4934 42.875 31.4932C42.9983 31.2481 43.704 30.9416 43.9912 30.792L44.1123 31.0703C46.7024 29.9536 66.2563 21.4948 67.2549 21.6113L67.3496 21.8809C66.6865 22.8371 46.0904 30.7585 43.5176 32.1182C44.3471 32.4147 67.2295 24.5121 68.5049 24.8877C68.1209 25.8109 63.6727 26.8938 62.4863 27.2568L50.2559 30.9932C48.3189 31.581 45.1369 32.4387 43.335 33.1963C46.0976 32.6752 68.4733 28.0185 69.2139 28.2305L69.3428 28.4404C68.8087 29.0914 62.5096 30.1082 61.3477 30.3516C55.3927 31.5888 49.4272 32.7744 43.4521 33.9092C46.8486 34.0137 68.863 31.2045 69.7627 31.6523L69.8408 31.9854C69.4681 32.3634 65.9001 32.5336 65.1006 32.6162L49.6016 34.2051C48.8192 34.2809 44.6926 34.5935 44.2148 34.8271C45.0273 35.3376 69.1877 34.401 70 35.1992L69.9717 35.4346C69.2671 35.8606 46.8111 35.504 43.8467 35.7207L43.8711 35.8291C44.7051 36.0113 45.8898 35.9553 46.8389 36.0508L61.6816 37.5547C64.1707 37.8029 66.7561 38.0465 69.2451 38.335C69.6476 38.3815 69.6478 38.4165 69.8604 38.666L69.7383 38.9287C68.506 39.3117 46.583 36.6251 43.3936 36.4883C45.0157 37.0392 49.3069 37.7734 51.208 38.1484L65.918 41.1104L65.916 41.1113C66.8646 41.2781 68.7193 41.5396 69.4404 42.1348C68.7142 42.5262 65.0556 41.7394 64.1689 41.458C64.3844 41.4504 64.6108 41.4516 64.833 41.4414C64.6122 41.4514 64.3869 41.4494 64.1729 41.457C63.5368 41.4365 58.8434 40.4455 57.9189 40.2607L43.4844 37.333C45.0101 38.0458 48.6693 39.0723 50.3994 39.5996L62.8848 43.4248C64.6104 43.9585 67.4049 44.5976 68.748 45.5781C67.7947 45.7796 65.2094 44.9007 64.1709 44.583C58.3814 42.812 52.5728 41.062 46.7891 39.2686C46.3706 39.1385 45.8481 38.9216 45.4268 38.9443C45.5778 39.2204 51.0111 41.8065 51.5029 41.7188C53.5951 41.3468 53.4011 42.2197 55.5078 43.4209C56.6847 44.0921 67.0303 47.8409 67.0996 48.7129C66.0753 48.9153 57.689 45.1436 56.2539 44.5273C57.8544 46.1452 59.5051 47.9947 61.501 49.1006C63.0411 49.9539 64.5908 50.7963 66.1338 51.6445C65.7196 52.4164 65.1128 53.3387 64.6426 54.0977C64.1278 53.6965 63.2876 53.0869 62.6592 52.9629C61.8281 53.37 62.251 54.0602 61.8398 54.5791C60.537 53.4709 53.5636 43.8642 51.917 45.0088C51.4814 45.9197 51.5151 48.1295 51.4893 49.209C50.4753 47.4377 47.87 44.3753 46.3242 43.0879C47.0921 45.8275 48.3218 48.6585 49.1357 51.498C46.5804 49.1629 44.2838 46.679 41.8018 44.2803C41.5445 44.0325 41.1692 43.8871 40.8213 43.835C39.8033 44.1794 39.8072 45.5698 39.8389 46.5117C39.9223 49.024 39.7698 51.6174 39.8359 54.1162C37.978 52.2003 36.1081 50.1603 34.4414 48.0898C33.4463 46.8546 31.8616 44.6751 32.9443 43.1113C33.3341 42.5494 34.0348 42.5385 34.666 42.4316C34.5553 40.2322 33.9583 37.9557 34.0547 35.7861C34.1267 34.1785 35.9245 35 36.8232 34.2715C36.9999 33.108 34.9072 31.0876 33.8359 30.9092C33.0163 30.7732 31.6808 31.9989 31.0879 32.6045C29.1888 34.5318 26.0747 36.7643 25.457 39.5449C25.1883 40.7574 28.3091 44.2248 29.1299 45.1465C32.2728 48.6768 35.5617 52.1281 38.2939 56C36.1741 54.5106 31.3608 50.5122 29.541 49.6113C29.4102 50.5519 29.4086 51.5917 29.3848 52.5479C28.4965 51.5857 26.7194 50.1098 25.6807 49.3027C24.9668 50.0492 24.7087 50.4315 24.1963 51.3223C24.5992 52.8118 25.1474 54.1028 25.7197 55.5322C23.5124 53.8069 21.3404 52.0384 20.3701 49.2412C20.1124 48.4982 19.9655 47.1691 20.3271 46.4551C21.5872 45.6146 22.9255 47.283 23.8262 46.3789C24.0008 45.4858 22.5384 41.8089 21.7031 41.3701C20.0089 41.2722 17.097 43.664 15.7549 44.7354L18.293 44.748C14.8437 46.6411 10.9884 47.6136 7.81445 50.3037C7.0428 50.9578 5.30956 52.4903 4.3291 52.4395C3.97078 52.1694 4.06426 52.3223 3.99121 51.8594C4.30338 51.2098 6.00514 50.4943 6.77441 49.9883C8.9683 48.545 11.7512 46.4481 13.6172 44.6396C12.1696 45.1399 3.96279 48.7913 2.64648 48.9795L2.53125 48.8711C2.68433 48.5269 3.38778 48.0189 3.74414 47.8721C7.51283 46.3207 11.3441 44.8486 15.041 43.127C16.1939 42.59 17.244 41.6046 18.1904 40.7578C15.5289 41.7039 3.51018 45.6327 1.41211 45.5957L1.4082 45.5762L1.41895 45.5791C1.43822 45.4939 1.46168 45.392 1.48828 45.2744C7.32586 43.0753 13.6109 41.694 19.46 39.5166C19.8874 39.3574 20.6458 38.6891 20.8994 38.4697C18.9962 38.8768 1.38082 42.5506 0.663086 42.3701L0.540039 42.0391C1.06665 41.3633 21.8665 37.821 24.5039 36.915L24.5312 36.7334C23.2727 36.5254 20.8476 37.0631 19.4824 37.21C17.3568 37.4387 1.02132 39.218 0.334961 38.9863C0.120101 38.9137 0.121924 38.8303 0.0234375 38.6357C0.28397 38.348 1.02631 38.2799 1.41406 38.25C9.39968 37.6346 17.5225 36.3665 25.5039 35.9199L25.5557 35.7979C24.8512 35.3005 3.84604 35.8843 1.2207 35.5996C0.812732 35.5554 0.473831 35.5836 0 35.3906L0.135742 35.2383C1.7679 34.7132 11.2924 35.0136 13.8916 34.8994C14.368 34.5736 22.324 34.8508 23.6357 34.7568L23.7393 34.5479C24.4944 34.5988 26.1521 34.6635 26.7871 34.916C26.7889 34.916 26.7912 34.9161 26.793 34.916V34.915C26.1585 34.6623 24.4995 34.5978 23.7441 34.5469L9.05762 33.0996C7.6238 32.9591 0.848836 32.5287 0.233398 31.8623L0.386719 31.6924C1.55078 31.478 6.21315 32.0699 7.73145 32.2178L22.4775 33.6738C23.7871 33.8091 25.095 33.964 26.4004 34.1357C25.0931 33.9637 23.7832 33.8083 22.4717 33.6729C22.9552 33.6342 23.191 33.6467 23.6074 33.4043C24.0175 33.4592 25.7988 33.8186 26.3135 33.8818C25.7962 33.8179 24.0189 33.4591 23.6094 33.4043C16.7689 31.881 9.74298 30.6907 2.87402 29.2695C2.15284 29.1203 0.881048 28.7809 0.333008 28.2861C1.96687 27.9743 18.8965 31.8136 21.8125 32.2754C22.8107 32.4335 25.8095 33.2619 26.7012 33.1182C24.1341 32.3723 2.29565 25.9197 1.40039 25.2412L1.3916 24.998C2.17496 24.6658 6.00334 26.0625 7.09668 26.3955L20.5391 30.4668C21.569 30.7791 25.4359 32.0749 26.2217 32.2148L26.3135 32.1182C25.1043 31.4561 21.7826 30.2078 20.3301 29.6006L7.13965 24.0693C5.86468 23.528 3.43364 22.7237 2.5166 21.9375L2.65527 21.6582C4.0307 21.8083 7.98211 23.6386 9.44531 24.2461L20.417 28.8008C22.6662 29.7431 25.1203 30.8562 27.3867 31.6729C24.3574 29.7958 4.6679 19.8787 3.97852 18.6807L4.15234 18.5488C5.44152 18.4102 23.969 29.4234 27.0869 30.5576L27.1445 30.4893C25.4881 29.2655 23.6206 28.124 21.8955 26.9658L11.2471 19.7891C9.59704 18.6721 7.97812 17.482 6.27734 16.4404C5.96917 16.2517 5.86725 16.0872 5.78125 15.7539C6.47604 15.228 9.18953 17.5913 9.96973 17.998C11.7049 18.9025 26.8184 29.6801 27.4863 29.709C27.2458 29.0129 10.4938 15.8081 8.69141 14.0654C8.3746 13.7591 7.98624 13.6096 7.75098 13.082L7.94824 12.793C8.62182 12.8177 13.1504 16.77 13.9336 17.415L24.4492 26.0742C25.0715 26.5888 27.5662 28.8353 28.0684 28.9746C27.9049 28.2363 10.2874 11.5265 10.0244 10.4912L10.2588 10.3047C10.3469 10.3045 10.4506 10.304 10.5693 10.3037C15.174 14.6599 24.3449 24.0812 28.3789 28.1279L28.5166 28.0635C28.3046 27.573 25.883 24.7545 25.333 24.0869L16.624 13.3672C15.8257 12.384 12.6671 8.94834 12.6494 7.94141L12.8838 7.91016C13.853 8.52354 15.6328 11.0137 16.4785 12.0322L24.6992 22.0713C26.2851 24.028 27.9886 26.2613 29.6631 28.0967C28.7298 26.3733 26.9438 23.9133 25.8125 22.2041L18.7129 11.4531C17.8642 10.1804 15.7051 7.27624 15.3193 6.04395L15.4111 5.875C16.2741 6.03901 16.5704 6.93162 16.9619 7.43164C18.4462 9.3277 29.382 26.7605 30.0977 27.1016C30.0189 26.6027 28.3328 23.6045 27.9619 22.915L21.3389 10.3965C20.374 8.5745 19.1977 6.63985 18.4033 4.75977C18.2292 4.3475 18.2715 4.33087 18.4219 4.02539C19.2997 4.51075 20.9078 8.03428 21.458 9.06738L27.5215 20.4561C28.6399 22.573 29.9598 25.2998 31.2031 27.2607C30.1902 23.9688 21.1502 3.82554 21.4121 2.45996C22.2402 2.73995 23.9324 7.52623 24.3945 8.64453L29.0781 19.9971C30.0013 22.2588 31.0076 24.9712 32.0664 27.1143C31.5313 24.9494 30.6641 22.3183 30.0117 20.1543L26.3311 7.95117C25.7863 6.14612 25.0948 3.96038 24.5918 2.11816C24.5237 1.8682 24.7056 1.65218 24.8398 1.48633C25.0884 1.53847 25.1408 1.49198 25.2451 1.82129C25.8436 3.71118 26.4193 5.72372 26.9912 7.6123L30.957 20.7227C31.2406 21.6863 32.2705 25.5689 32.6904 26.1182C32.8816 26.54 32.9394 26.6343 33.2197 27.0029L33.2207 27.001C32.9414 26.6337 32.8834 26.5396 32.6924 26.1182C32.7341 25.5428 32.0465 22.4091 31.792 21.0918C30.5044 14.4493 29.0597 7.63249 27.8496 0.959961C27.907 0.836275 27.9545 0.73355 27.9922 0.652344C28.8809 1.23566 29.3497 5.14528 29.5889 6.35254L31.458 15.6572C31.7056 16.8928 33.3654 24.863 33.3916 25.7598C33.3915 25.7623 33.3907 25.765 33.3906 25.7676L33.5791 26.3447L33.6807 26.3623C33.7108 25.1546 33.205 21.0175 33.0713 19.6641L31.667 5.54004C31.5607 4.46455 31.0979 0.772232 31.3301 0H31.7725ZM2.72363 49.0508L2.50781 48.9844C2.53782 48.9916 2.58453 48.9883 2.64648 48.9795L2.72363 49.0508ZM1.4082 45.5762L1.18652 45.5215L1.36914 45.3398L1.4082 45.5762ZM47.252 40.8701C48.2383 42.0036 48.992 42.7797 50.5967 42.4287C50.2401 41.9186 47.8606 41.0106 47.252 40.8701ZM65.3291 41.3848C65.2134 41.4093 65.0927 41.4225 64.9697 41.4316C65.0927 41.4223 65.2135 41.4096 65.3291 41.3848ZM26.4434 33.8936C26.6284 33.9725 26.9998 34.1031 27.1191 34.2305C27.1201 34.2306 27.1211 34.2313 27.1221 34.2314H27.123C27.0038 34.1035 26.629 33.9725 26.4443 33.8936H26.4434ZM27.4775 33.2383C27.5735 33.2774 27.6792 33.3311 27.8125 33.4102L27.8652 33.6387C27.4201 34.0331 27.139 33.9217 26.4707 33.8945C27.1397 33.9216 27.4211 34.034 27.8662 33.6396L27.8145 33.4111C27.6805 33.3317 27.5738 33.2774 27.4775 33.2383ZM2.6416 21.6562L2.42676 21.7949L2.57715 21.6504C2.59789 21.6517 2.61946 21.654 2.6416 21.6562ZM2.65527 21.6582C2.65067 21.6577 2.64615 21.6567 2.6416 21.6562L2.66309 21.6436L2.65527 21.6582Z" fill="black"/>
</svg>
