<svg width="401" height="152" viewBox="0 0 401 152" fill="none" xmlns="http://www.w3.org/2000/svg">
<g clip-path="url(#clip0_725_66)">
<path d="M273.133 121.369C277.819 121.458 286.136 120.59 289.956 122.911C296.931 127.148 295.484 136.684 287.491 138.847C290.043 142.741 293.424 147.355 296.152 151.157C295.257 151.171 294.276 151.135 293.373 151.119L292.277 149.58L285.128 139.332C282.068 139.341 278.41 139.441 275.395 139.267C275.234 142.877 275.354 147.539 275.336 151.216L273.153 151.144C273.004 141.312 273.121 131.211 273.133 121.369ZM275.352 137.968C279.992 137.99 286.093 138.736 289.608 135.644C294.46 130.374 291.108 123.145 284.157 122.793C281.281 122.647 278.226 122.937 275.422 122.668C275.205 127.693 275.467 132.931 275.352 137.968Z" fill="black" fill-opacity="0.984314"/>
<path d="M143.324 121.379C149.5 121.354 161.481 119.827 164.359 126.823C167.427 134.278 161.99 139.846 154.328 140.095L145.633 140.106C145.659 143.811 145.636 147.517 145.566 151.221L143.343 151.147L143.324 121.379ZM145.595 138.751C150.914 138.812 156.33 139.742 160.425 136.392C161.533 135.093 162.681 133.42 162.722 131.676C162.983 120.617 152.049 123.15 145.65 122.696C145.631 127.687 145.791 133.839 145.595 138.751Z" fill="black" fill-opacity="0.984314"/>
<path d="M180.759 121.36C181.237 121.355 181.828 121.303 182.27 121.499C183.123 121.877 193.872 148.099 195.118 151.191L192.61 151.129C191.494 148.371 190.197 145.666 189.076 142.853L182.389 142.85L173.124 142.846C172.387 144.693 170.48 151.5 168.206 151.141C167.981 150.291 179.362 124.345 180.759 121.36ZM173.77 141.547L181.41 141.545L188.567 141.538C187.785 139.706 181.565 124.763 180.982 124.29C179.032 128.98 175.887 137.21 173.77 141.547Z" fill="black" fill-opacity="0.984314"/>
<path d="M313.258 121.374C314.262 121.346 314.995 121.188 315.441 122.263C319.434 131.898 323.819 141.5 327.651 151.189L325.116 151.121C324.074 148.385 322.686 145.694 321.634 142.854L314.944 142.85L305.7 142.839C304.723 144.922 303.319 149.122 302.295 150.879C301.624 151.227 301.667 151.103 300.807 151.079L300.652 150.837C301.001 149.442 303.858 143.162 304.566 141.531C307.478 134.842 310.303 128.035 313.258 121.374ZM306.319 141.552L313.769 141.546L321.121 141.542C319.334 137.456 317.571 133.358 315.833 129.251C315.52 128.514 313.926 124.619 313.677 124.229C312.996 125.439 312.561 126.629 312.001 127.888C310.014 132.365 308.341 137.103 306.319 141.552Z" fill="black" fill-opacity="0.984314"/>
<path d="M109.671 121.39C110.156 121.37 110.748 121.301 111.205 121.484C112.033 121.814 122.621 147.724 124.084 151.205L121.513 151.111C120.455 148.424 119.11 145.579 117.994 142.853L111.313 142.85L102.07 142.857C101.263 144.84 100.476 146.842 99.6728 148.826C99.2041 149.983 98.5581 151.349 97.12 151.139C96.9128 150.516 108.354 124.288 109.671 121.39ZM102.708 141.527L110.53 141.545L117.481 141.538C116.639 139.564 110.427 124.699 109.93 124.274C107.749 129.476 105.058 136.553 102.708 141.527Z" fill="black" fill-opacity="0.984314"/>
<path d="M335.274 121.323C335.985 121.344 336.49 121.377 337.195 121.467C338.053 121.89 349.204 141.089 350.776 143.737L359.452 129.31C360.879 126.937 362.352 124.441 363.828 122.086C363.983 121.841 364.409 121.523 364.682 121.433C365.408 121.193 365.51 121.24 366.123 121.489C366.379 122.507 366.303 128.911 366.303 130.483L366.262 151.212L364.09 151.139C364.182 143.359 364.116 135.37 364.081 127.58L364.09 124.301C360.421 130.62 356.454 136.827 352.74 143.125C352.272 143.919 351.011 146.145 350.171 146.383C348.601 145.327 338.045 127.141 336.665 124.333C336.484 130.295 336.717 136.327 336.619 142.289C336.59 144.046 336.96 150.117 336.112 151.317L335.795 151.346C335.541 151.164 335.317 150.839 335.312 150.526C335.243 147.464 335.266 144.346 335.263 141.285L335.274 121.323Z" fill="black" fill-opacity="0.984314"/>
<path d="M204.091 124.006C203.969 127.702 204.394 149.496 203.881 150.941C203.816 151.119 203.63 151.15 203.462 151.228L203.041 151.059C202.969 150.934 202.873 150.77 202.755 150.568C202.783 141.442 202.747 132.313 202.726 123.188C202.724 122.449 202.673 121.842 203.065 121.46C204.167 121.421 204.792 121.278 205.539 122.244C212.105 130.734 217.949 140.092 224.589 148.49C224.399 144.052 224.43 136.967 224.583 132.513C225.237 134.121 224.505 142.524 224.818 144.777C225.026 146.268 225.247 149.744 224.977 151.184C224.17 151.198 223.628 151.198 223.124 150.506C221.031 147.637 218.966 144.745 216.89 141.864C212.588 135.936 208.322 129.984 204.091 124.006Z" fill="black" fill-opacity="0.984314"/>
<path d="M46.4382 121.361C47.0776 121.369 48.1522 121.286 48.6335 121.62C48.8602 124.287 48.7308 128.761 48.7306 131.627L48.7002 149.822C50.7364 149.868 65.3312 149.677 66.0445 150.014L65.9053 151.011C64.9678 151.242 60.5834 151.181 59.3675 151.18L46.4102 151.14C46.7072 141.827 46.436 130.822 46.4382 121.361Z" fill="black" fill-opacity="0.984314"/>
<path d="M73.4108 121.385C73.9708 121.382 75.0966 121.299 75.4876 121.629C75.7147 124.436 75.5787 128.665 75.5783 131.641L75.5497 149.827C79.5528 149.876 83.5948 149.816 87.5952 149.851C88.5724 149.859 92.1507 149.784 92.9456 149.952L92.8052 151.058C91.4467 151.245 87.5946 151.17 86.1298 151.169L73.4023 151.156L73.4108 121.385Z" fill="black" fill-opacity="0.984314"/>
<path d="M33.6105 151.114L33.4279 151.061C33.2808 150.795 33.0715 123.258 33.3717 121.606C33.7979 121.265 34.1603 121.401 34.82 121.419L34.8174 121.542C34.7687 124.599 35.2696 149.695 34.6898 150.87C34.2882 150.994 34.0164 151.042 33.6105 151.114Z" fill="black" fill-opacity="0.984314"/>
<path d="M224.583 132.513C224.506 130.646 224.191 122.71 225.025 121.548L225.337 121.521C226.096 122.46 225.809 130.154 225.809 132.001L225.816 150.858L225.576 151.16L224.976 151.184C225.247 149.744 225.025 146.268 224.818 144.777C224.505 142.524 225.237 134.121 224.583 132.513Z" fill="black" fill-opacity="0.968627"/>
<path d="M34.8188 121.419L35.4205 121.543C35.7039 122.613 35.5141 129.483 35.5153 130.942L35.5204 143.574C35.5202 145.808 35.5973 148.72 35.4421 150.9C35.0375 151.374 34.2083 151.181 33.6094 151.114C34.0153 151.042 34.287 150.994 34.6886 150.87C35.2684 149.695 34.7675 124.599 34.8163 121.541L34.8188 121.419Z" fill="black" fill-opacity="0.972549"/>
<path d="M195.314 0H195.917C196.422 2.43216 196.773 7.60516 197.043 10.2805L199.173 31.434C199.158 32.1975 199.367 34.6145 199.598 35.3252L199.674 35.7527C200.031 35.9903 200.342 35.9156 200.789 35.8907C200.973 34.7234 201.194 33.4996 201.219 32.3232C201.679 29.3107 201.867 25.7168 202.206 22.6492C203.032 15.1671 203.528 7.45005 204.505 0H205.194C205.423 1.34562 204.879 5.70201 204.72 7.29339L203.265 21.9441C203.083 23.7946 202.61 27.5529 202.602 29.2953C202.302 30.4912 201.979 34.7957 201.961 36.145C202.159 35.2739 202.958 31.9576 202.972 31.2253L206.962 11.2589C207.311 9.51734 208.57 1.69568 209.439 0.901111L209.662 1.03675C210.083 3.01441 204.824 26.7803 204.096 31.0228C203.663 32.6097 203.248 34.5615 203.158 36.2039C203.659 34.665 204.121 33.1142 204.546 31.5527L210.908 10.7483C211.262 9.58454 213.163 2.3962 213.856 1.9822L214.295 2.11512C214.559 2.97211 213.071 6.98545 212.725 8.12202L207.142 26.5445C206.342 29.1889 204.797 33.7498 204.282 36.3093C205.844 32.8887 217.242 4.23287 218.258 3.46305C218.497 3.60053 218.556 3.59053 218.63 3.87212C218.877 4.82399 206.649 33.1399 205.292 36.6774C206.336 35.3404 209.149 29.8107 210.083 28.0571C213.044 22.4629 216.041 16.8888 219.076 11.3351C219.981 9.6726 221.293 6.62895 222.63 5.41644L222.787 5.59808C222.46 7.81146 219.662 12.2809 218.448 14.5455L210.78 28.8734C209.48 31.3046 207.532 34.6827 206.482 37.1432C208.288 34.7679 210.277 31.6053 211.955 29.0893L221.493 14.8405C222.399 13.5013 225.303 8.72042 226.454 8.15162L226.701 8.29788C226.679 8.6647 226.566 9.06193 226.372 9.37002C220.294 18.9833 213.042 28.4797 207.154 38.1442C210.23 34.7449 228.565 11.5408 230.325 10.6791L230.574 10.74C230.619 11.6598 227.635 14.9745 226.91 15.8578L214.548 30.8767C213.034 32.7081 209.674 36.502 208.507 38.2791L208.724 38.3001L227.004 20.0391C228.16 18.8968 232.405 14.4514 233.452 13.7182C233.906 13.7299 233.73 13.6643 234.11 14.0187C233.963 14.6961 231.903 16.6023 231.251 17.2784C224.103 24.6793 216.537 31.7382 209.363 39.1119C211.209 37.9918 214.982 34.7427 216.825 33.2354L230.435 22.0798C231.882 20.8891 235.496 17.7036 237.049 17.0906L237.258 17.383C235.747 19.4037 230.037 23.7258 227.723 25.6177L209.936 40.1352C211.814 39.2953 216.553 35.9901 218.411 34.7443L232.855 25.0894C234.504 23.9934 237.856 21.5676 239.604 21.066L239.827 21.1779C238.114 24.1103 212.139 39.1069 211.182 40.8765C212.674 40.4365 215.848 38.5117 217.678 37.553C225.661 33.3735 233.722 28.8816 241.783 24.8292C241.954 24.8586 242.097 24.8832 242.212 24.9031C242.255 25.0122 242.369 25.193 242.324 25.3018C242.034 26.0014 215.507 40.1216 212.55 41.3878C212.159 41.5893 211.193 42.0034 211.029 42.3334C211.828 42.2009 211.994 42.1334 212.717 41.7653C216.235 40.2677 242.872 28.8911 244.229 29.0491L244.358 29.4112C243.459 30.6952 215.409 41.3454 211.908 43.1723C213.032 43.5729 244.194 32.9481 245.93 33.4531C245.408 34.694 239.352 36.1497 237.736 36.6377L221.083 41.6599C218.446 42.4501 214.113 43.6026 211.659 44.621C215.419 43.921 245.887 37.6609 246.896 37.9458L247.072 38.228C246.348 39.103 237.768 40.47 236.185 40.7972C228.077 42.4602 219.956 44.0543 211.82 45.5795C216.445 45.72 246.422 41.9428 247.644 42.5454L247.749 42.993C247.242 43.5012 242.385 43.7308 241.296 43.8419L220.192 45.9765C219.127 46.0784 213.508 46.4987 212.858 46.8129C213.958 47.4996 246.87 46.24 247.967 47.3139L247.928 47.6302C246.968 48.2029 216.392 47.7229 212.357 48.0143L212.39 48.1604C213.525 48.4054 215.139 48.3302 216.431 48.4586L236.64 50.479C240.029 50.8126 243.55 51.1408 246.939 51.5286C247.487 51.5911 247.487 51.6377 247.777 51.9735L247.61 52.3264C245.936 52.8418 216.083 49.2297 211.74 49.0457C213.948 49.7862 219.791 50.7731 222.38 51.2772L242.408 55.2592C241.809 55.7803 240.861 55.6957 240.033 55.7248C239.169 55.6979 232.777 54.3653 231.518 54.1169L211.863 50.182C213.941 51.1402 218.924 52.5199 221.279 53.2286L238.279 58.3699C240.628 59.0873 244.433 59.9467 246.261 61.2646C244.963 61.5354 241.443 60.3541 240.029 59.9272C232.146 57.5466 224.238 55.1941 216.363 52.7834C215.793 52.6086 215.082 52.317 214.508 52.3476C214.714 52.7187 222.111 56.194 222.781 56.0761C225.63 55.5761 225.366 56.7498 228.234 58.3645C229.836 59.2666 243.925 64.3065 244.017 65.4781C242.623 65.7505 231.204 60.6807 229.25 59.8523C231.429 62.0271 233.677 64.5125 236.395 65.999C238.492 67.146 240.601 68.2786 242.702 69.4188C242.138 70.4563 241.312 71.6953 240.671 72.7154C239.97 72.1762 238.827 71.3566 237.971 71.19C236.839 71.7372 237.415 72.6652 236.855 73.3626C235.081 71.873 225.587 58.96 223.345 60.4985C222.752 61.7229 222.799 64.6939 222.763 66.1449C221.383 63.7642 217.835 59.6475 215.73 57.9169C216.776 61.5994 218.45 65.4048 219.558 69.2216C216.079 66.0828 212.952 62.744 209.572 59.5197C209.222 59.1865 208.711 58.9904 208.237 58.9205C206.851 59.3835 206.856 61.2535 206.9 62.5196C207.013 65.8965 206.806 69.3814 206.896 72.7402C204.366 70.165 201.82 67.4237 199.551 64.6407C198.196 62.9804 196.038 60.0511 197.513 57.949C198.043 57.1935 198.997 57.1783 199.857 57.0347C199.706 54.0783 198.893 51.0186 199.024 48.1023C199.122 45.9412 201.57 47.0458 202.794 46.0665C203.034 44.5027 200.186 41.7868 198.727 41.5469C197.611 41.3635 195.792 43.0121 194.985 43.8261C192.399 46.4167 188.159 49.4166 187.318 53.1542C186.951 54.7835 191.201 59.4445 192.319 60.6835C196.598 65.429 201.076 70.0687 204.797 75.2733C201.911 73.2716 195.356 67.897 192.879 66.6861C192.7 67.9504 192.698 69.3475 192.666 70.6326C191.457 69.3393 189.036 67.3555 187.622 66.2706C186.65 67.274 186.299 67.7875 185.602 68.9848C186.15 70.9871 186.897 72.7226 187.676 74.6441C184.67 72.3249 181.713 69.9477 180.392 66.1876C180.041 65.1889 179.84 63.4031 180.333 62.4434C182.049 61.3129 183.871 63.5563 185.098 62.3409C185.336 61.1408 183.344 56.1979 182.207 55.608C179.9 55.4763 175.934 58.6915 174.107 60.1314L177.563 60.1485C172.866 62.6932 167.617 64.0004 163.296 67.6166C162.245 68.4959 159.886 70.5549 158.551 70.4865C158.063 70.1235 158.19 70.3296 158.09 69.7074C158.515 68.8342 160.832 67.8721 161.88 67.1918C164.867 65.2518 168.656 62.4342 171.197 60.0034C169.133 60.7074 156.98 66.0573 156.071 65.8425L156.365 65.9325L156.103 65.6901C156.311 65.2273 157.27 64.5441 157.755 64.3471C162.886 62.2617 168.102 60.2836 173.135 57.9695C174.705 57.2477 176.135 55.9231 177.424 54.7849C173.801 56.0564 157.436 61.3373 154.58 61.2876L154.521 60.9436L154.272 61.1884L154.589 61.2654C154.615 61.1508 154.646 61.0144 154.683 60.8563C162.631 57.9003 171.188 56.0436 179.152 53.1168C179.734 52.9028 180.767 52.0045 181.112 51.7096C178.521 52.2568 154.537 57.1941 153.56 56.9515L153.392 56.5066C154.109 55.5983 182.429 50.8372 186.02 49.6194L186.057 49.3758C184.343 49.0962 181.042 49.819 179.183 50.0164C176.29 50.3237 154.047 52.7148 153.113 52.4034C152.82 52.3057 152.822 52.1943 152.688 51.9328C153.043 51.5459 154.054 51.4545 154.582 51.4144C165.455 50.5872 176.515 48.8824 187.382 48.2822L187.453 48.1185C186.504 47.4493 157.893 48.2341 154.318 47.8514C153.763 47.7919 153.301 47.8299 152.656 47.5705L152.841 47.3663C155.061 46.6603 168.031 47.0643 171.571 46.9107C177.214 46.976 183.505 47.0539 189.136 46.9325C189.307 46.5034 189.56 46.5884 189.587 46.0129C189.425 45.8409 188.914 45.6645 188.663 45.5583C189.599 45.592 189.984 45.7539 190.599 45.2165L190.527 44.9092C189.914 44.5506 189.736 44.5598 189.016 44.5171C185.54 43.5203 155.783 34.8404 154.563 33.928L154.551 33.6019C155.617 33.1547 160.831 35.0315 162.319 35.4791L180.622 40.9523C182.025 41.3721 187.289 43.1144 188.359 43.3025L188.484 43.1713C186.837 42.2813 182.314 40.6043 180.337 39.7881L162.377 32.353C160.641 31.6254 157.331 30.5446 156.083 29.4878L156.283 29.093L155.961 29.2961L156.165 29.102C157.932 29.2156 163.486 31.7575 165.517 32.59L180.456 38.7128C183.518 39.9795 186.86 41.475 189.946 42.5727C185.821 40.0497 159.011 26.7195 158.073 25.1096L158.311 24.9321C160.066 24.7458 185.293 39.5502 189.537 41.0741L189.615 40.9825C187.36 39.3376 184.817 37.803 182.468 36.2462L167.97 26.599C165.723 25.0975 163.519 23.498 161.203 22.0979C160.783 21.8442 160.645 21.6241 160.528 21.1761C161.474 20.4686 165.169 23.6455 166.231 24.1922C168.594 25.408 189.174 39.8969 190.081 39.9341C189.762 39.0046 166.944 21.2486 164.49 18.906C164.059 18.4942 163.53 18.2938 163.21 17.5847L163.479 17.1964C164.396 17.2296 170.561 22.5416 171.627 23.4086L185.945 35.0479C186.792 35.7393 190.19 38.7588 190.873 38.9461C190.651 37.9536 166.658 15.4883 166.305 14.1014L166.624 13.8514C166.745 13.8511 166.885 13.8508 167.047 13.8504C173.317 19.7058 185.803 32.3692 191.296 37.8086L191.484 37.7213C191.196 37.0621 187.898 33.2734 187.149 32.3762L175.291 17.9677C174.205 16.6465 169.904 12.0282 169.879 10.6746L170.199 10.6326C171.519 11.4571 173.941 14.8035 175.092 16.1726L186.286 29.6677C188.446 32.2979 190.764 35.2999 193.044 37.7669C191.774 35.4505 189.343 32.1431 187.802 29.8456L178.135 15.3942C176.979 13.6834 174.039 9.78026 173.514 8.12397L173.639 7.89704C174.814 8.11723 175.218 9.31688 175.751 9.98909C177.772 12.537 192.667 35.9788 193.637 36.4293C193.531 35.7605 191.233 31.7282 190.728 30.8014L181.711 13.9746C180.397 11.5255 178.796 8.92495 177.714 6.39776C177.477 5.84352 177.534 5.82172 177.739 5.41108C178.934 6.06305 181.123 10.7991 181.872 12.1878L190.129 27.4958C191.652 30.3413 193.449 34.0065 195.142 36.6423C193.762 32.2174 181.453 5.14235 181.81 3.3068C182.937 3.68216 185.242 10.1162 185.872 11.6195L192.249 26.8798C193.506 29.92 194.875 33.5657 196.317 36.4463C195.588 33.5363 194.408 29.9992 193.519 27.0903L188.508 10.6882C187.766 8.26178 186.825 5.32378 186.14 2.84739C186.047 2.51123 186.295 2.22099 186.478 1.99798C186.816 2.0681 186.888 2.00535 187.03 2.44849C187.845 4.98897 188.628 7.69397 189.407 10.2327L194.806 27.8546C195.192 29.1497 196.595 34.3684 197.166 35.1067C197.427 35.674 197.505 35.8003 197.887 36.2958C198.173 35.9852 198.098 35.1434 198.118 34.6254L198.376 35.4117L198.515 35.4353C198.556 33.8122 197.867 28.251 197.685 26.4316L195.773 7.44716C195.628 6.00207 194.998 1.0381 195.314 0ZM221.547 57.0308C221.062 56.345 217.821 55.1242 216.993 54.9355C218.336 56.4592 219.362 57.5026 221.547 57.0308Z" fill="black" fill-opacity="0.988235"/>
<path d="M247.222 152C245.387 151.478 243.993 151.084 242.293 150.174C231.791 144.551 231.937 127.903 242.368 122.238C245.884 120.366 250.006 119.969 253.818 121.134C257.611 122.266 260.785 124.869 262.629 128.355C264.681 132.188 264.981 137.438 263.694 141.559C262.541 145.329 259.921 148.483 256.42 150.322C254.789 151.16 253.436 151.495 251.7 152H247.222ZM249.881 150.644C263.297 149.269 265.727 131.547 256.851 124.449C254.748 122.758 252.115 121.852 249.411 121.888C232.2 122.813 233.245 150.754 249.881 150.644Z" fill="black" fill-opacity="0.984314"/>
<path d="M379.061 142.864C378.239 144.963 376.516 150.455 374.802 151.423L374.37 151.262C374.004 150.511 374.558 149.109 374.953 148.471C377.25 144.752 384.931 123.208 386.999 121.45C387.759 121.185 388.281 121.258 388.702 122.06C389.746 124.042 390.557 126.198 391.43 128.269L397.774 143.32C398.387 144.771 400.229 149.395 400.922 150.569L401.001 150.698V151.211L398.514 151.102C397.603 148.622 396.066 145.344 394.99 142.856L379.061 142.864ZM379.741 141.529L387.392 141.546L394.484 141.545C393.646 139.525 387.694 125.051 386.913 124.255C384.735 129.686 382.135 136.234 379.741 141.529Z" fill="black" fill-opacity="0.984314"/>
<path d="M0 121.369L2.64392 121.403L9.65141 138.639C10.8828 141.665 12.2953 145.402 13.6603 148.318C14.2868 146.305 15.1556 144.298 15.9574 142.341C18.6642 135.738 21.2818 129.095 24.042 122.514C24.2149 122.102 24.405 121.695 24.805 121.47L25.7406 121.451C25.8682 121.877 25.7834 122.228 25.5869 122.625C23.8542 126.136 14.8253 150.419 13.5006 151.07C13.0519 151.069 12.7755 151.156 12.4319 150.822C11.2798 149.703 3.61317 130.264 2.34957 127.231C1.69547 125.662 1.01394 123.205 0 121.902V121.369Z" fill="black" fill-opacity="0.984314"/>
<path d="M184.806 44.9016C175.492 42.8539 165.925 41.2534 156.572 39.3431C155.59 39.1425 153.859 38.6873 153.113 38.0222C155.338 37.6031 178.389 42.7637 182.359 43.3841C183.719 43.5967 187.806 44.7122 189.017 44.5171C189.738 44.5598 189.916 44.5506 190.528 44.9092L190.6 45.2165C189.986 45.754 189.601 45.592 188.664 45.5583C188.422 45.5895 185.434 44.9846 184.806 44.9016Z" fill="black" fill-opacity="0.980392"/>
<path d="M184.984 46.4358L164.987 44.4911C163.035 44.3023 153.808 43.7231 152.973 42.8271L153.181 42.5991C154.765 42.3107 161.114 43.1068 163.182 43.3055L183.26 45.263C185.374 45.4786 187.484 45.7286 189.589 46.0129C189.562 46.5883 189.309 46.5034 189.139 46.9325C188.277 46.5917 186.014 46.5044 184.984 46.4358Z" fill="black" fill-opacity="0.984314"/>
<path d="M197.168 35.1067C197.225 34.3333 196.289 30.1211 195.942 28.3505C194.189 19.4218 192.222 10.2589 190.574 1.28982C190.652 1.12357 190.717 0.985863 190.768 0.876709C191.978 1.66075 192.617 6.91603 192.942 8.53873L195.488 21.0459C195.825 22.7068 198.085 33.4217 198.12 34.6254C198.1 35.1433 198.175 35.9852 197.889 36.2958C197.507 35.8003 197.429 35.674 197.168 35.1067Z" fill="black" fill-opacity="0.976471"/>
<path d="M199.764 0H200.694L200.702 25.0093C200.7 26.4427 200.581 34.9407 200.788 35.8907C200.342 35.9156 200.03 35.9903 199.674 35.7527L199.598 35.3252C199.842 34.5233 199.746 26.2116 199.745 24.759L199.764 0Z" fill="black" fill-opacity="0.976471"/>
<path d="M200.696 0H200.935L200.917 21.1206C200.919 22.7413 200.724 31.7212 201.221 32.3232C201.195 33.4996 200.974 34.7234 200.79 35.8907C200.583 34.9407 200.702 26.4427 200.704 25.0093L200.696 0Z" fill="black" fill-opacity="0.101961"/>
<path d="M199.551 0H199.764L199.744 24.759C199.746 26.2116 199.842 34.5233 199.598 35.3252C199.367 34.6145 199.157 32.1975 199.173 31.434C199.392 31.1727 199.547 30.8774 199.543 30.5311C199.519 24.2109 199.5 17.8865 199.509 11.5659C199.515 7.74849 199.392 3.80696 199.551 0Z" fill="black" fill-opacity="0.105882"/>
<path d="M242.41 55.2592C243.701 55.4833 246.23 55.8336 247.213 56.6346C246.224 57.1609 241.241 56.1028 240.035 55.7247C240.863 55.6957 241.811 55.7802 242.41 55.2592Z" fill="black" fill-opacity="0.964706"/>
<path d="M184.981 46.4358C186.011 46.5044 188.274 46.5917 189.136 46.9325C183.505 47.0539 177.213 46.976 171.57 46.9107C172.187 46.4695 183.052 46.8442 184.841 46.7178L184.981 46.4358Z" fill="black" fill-opacity="0.203922"/>
<path d="M202.601 29.2953C202.903 30.6103 202.329 30.2886 202.971 31.2253C202.958 31.9576 202.159 35.274 201.961 36.145C201.979 34.7957 202.302 30.4912 202.601 29.2953Z" fill="black" fill-opacity="0.0588235"/>
<path d="M184.804 44.9016C185.432 44.9846 188.42 45.5895 188.662 45.5583C188.914 45.6645 189.425 45.8409 189.586 46.013C187.481 45.7286 185.371 45.4786 183.258 45.2631C183.916 45.2111 184.237 45.2276 184.804 44.9016Z" fill="black" fill-opacity="0.0980392"/>
<path d="M203.16 36.2039C203.25 34.5615 203.665 32.6097 204.098 31.0228L204.548 31.5527C204.124 33.1142 203.661 34.665 203.16 36.2039Z" fill="black" fill-opacity="0.0392157"/>
<path d="M212.719 41.7653C211.997 42.1334 211.83 42.2008 211.031 42.3333C211.196 42.0034 212.161 41.5893 212.553 41.3878L212.719 41.7653Z" fill="black" fill-opacity="0.439216"/>
</g>
<defs>
<clipPath id="clip0_725_66">
<rect width="401" height="152" fill="white"/>
</clipPath>
</defs>
</svg>
