<svg width="350" height="146" viewBox="0 0 350 146" fill="none" xmlns="http://www.w3.org/2000/svg">
<path d="M109.379 101.168C109.373 115.87 109.624 131.358 109.344 146H108.42L88.3457 121.192L82.1602 113.504C81.1698 112.275 79.6871 110.337 78.6455 109.246L78.6514 133.891C78.6491 137.156 78.5032 142.144 78.6768 145.306C77.524 145.208 76.926 145.185 75.7734 145.246L75.7578 101.197C77.288 101.196 79.1832 101.145 80.6787 101.236C82.0985 102.781 83.3335 104.434 84.6533 106.06C91.9921 115.099 99.101 124.364 106.479 133.368L106.509 101.177L109.379 101.168ZM140.543 100.402C157.261 99.7891 164.343 114.048 160.98 128.963C159.177 136.962 153.778 142.055 146.19 144.556C144.347 145.163 142.498 145.509 140.624 146H135.277C131.813 145.295 128.845 144.492 125.9 142.424C117.936 136.827 116.749 127.106 118.324 118.062C120.248 107.023 129.944 100.74 140.543 100.402ZM180.043 101.176C186.498 101.173 192.239 100.678 197.278 105.565C200.9 109.076 200.797 115.516 197.285 118.986C194.575 121.666 190.876 122.91 187.289 123.655C188.868 125.797 190.844 128.139 192.601 130.159C196.864 135.062 200.886 140.34 205.172 145.204C203.912 145.325 201.424 145.614 200.236 145.998H197.092C195.805 143.812 193.973 141.41 192.479 139.317L185.582 129.604C184.772 128.469 182.27 125.132 181.725 124.09C180.424 124.107 177.844 124.206 176.647 124.103C176.733 130.707 176.37 138.96 176.698 145.291C174.783 145.137 171.914 145.144 169.95 145.217L169.946 115.22C169.947 110.66 170.06 105.684 169.945 101.182L180.043 101.176ZM9.83594 101.177C15.1755 101.163 18.4244 100.711 23.6074 103.058C30.6311 106.238 31.9882 115.568 26.6807 121.002C21.9866 125.808 13.5368 125.746 7.09277 125.637C6.89672 125.633 6.70039 125.623 6.50488 125.607L6.5166 138.398C6.51582 140.498 6.43866 143.242 6.54785 145.299C4.65158 145.098 1.96978 145.166 0 145.167V101.177H9.83594ZM301.379 122.145C301.815 129.798 302.38 137.611 302.703 145.257C300.789 145.117 297.812 145.13 295.893 145.257C295.346 140.402 295.257 133.463 294.987 128.456C294.688 122.898 294.237 116.478 294.133 110.984C294.114 109.788 294.014 108.599 293.929 107.406C292.712 109.419 291.102 113.474 290.107 115.702L281.503 134.928C280.804 136.495 277.44 144.815 276.374 145.286C275.219 144.739 261.75 113.35 258.963 108.365C259.206 113.752 258.693 120.456 258.375 125.951C258.013 132.236 257.856 139.068 257.287 145.268C256.357 145.173 255.379 145.222 254.444 145.241C254.338 138.799 255.451 131.889 255.506 125.443C255.573 117.369 256.632 109.237 256.711 101.2C258.779 101.155 260.988 101.196 263.066 101.197C266.775 108.586 270.053 116.48 273.644 123.955C275.291 127.385 276.856 131.351 278.685 134.628C279.705 131.816 281.153 128.852 282.348 126.114L290.735 107.018C291.578 105.076 292.525 103.144 293.312 101.19L300.334 101.16L301.379 122.145ZM227.621 99.9062C228.311 100.137 228.696 100.945 228.995 101.589C231.022 105.935 232.869 110.38 234.817 114.764L248.323 145.266C246.411 145.083 242.988 145.179 240.958 145.174C239.223 141.704 237.446 136.936 235.852 133.197L228.063 133.192C224.589 133.199 219.431 133.363 216.092 133.129C214.362 137.021 212.693 141.238 211.056 145.202C209.683 145.169 208.666 145.133 207.289 145.285C208.484 142.767 209.511 140.202 210.65 137.662L222.646 110.64C223.769 108.159 226.167 101.898 227.621 99.9062ZM48.417 99.875C48.9758 100.046 49.377 100.789 49.6191 101.302C52.0075 106.357 54.2199 111.529 56.4756 116.649L69.1055 145.278C67.3021 145.08 63.7 145.184 61.7295 145.173C59.9872 141.535 58.2939 137.009 56.6602 133.193H48.9629C45.7085 133.2 39.9002 133.386 36.8486 133.121L31.8438 145.208C30.48 145.174 29.4642 145.141 28.0938 145.28L41.1826 115.751L44.9277 107.217C45.8215 105.146 47.1836 101.652 48.417 99.875ZM329.37 100.029C330.614 100.457 332.222 104.959 332.779 106.257L336.223 114.128C339.34 121.325 342.684 128.573 345.848 135.764C346.683 137.66 348.939 143.336 349.922 144.732L349.999 144.84V145.21C347.716 145.114 345.012 145.18 342.712 145.183C341.09 142.452 339.072 136.469 337.521 133.206C330.931 133.183 324.3 133.26 317.717 133.178C316.65 136.257 314.055 142.139 312.693 145.261C311.284 145.188 310.458 145.151 309.059 145.272C312.931 136.287 316.875 127.333 320.89 118.412C321.924 116.071 328.365 100.835 329.37 100.029ZM138.325 103.152C134.329 104.021 130.547 107.211 128.376 110.637C124.571 116.642 124.212 124.245 125.714 131.061C126.652 135.314 128.539 139.344 132.272 141.76C135.236 143.677 137.653 143.759 141.03 143.67C156.422 142.038 158.54 114.609 148.219 106.048C145.582 103.862 141.627 103.269 138.325 103.152ZM46.6875 109.45C44.342 114.84 42.1945 120.484 39.8457 125.881C39.2613 127.224 38.4996 129.364 37.9033 130.572L47.083 130.585C49.8646 130.583 52.8814 130.64 55.6445 130.545C53.3506 125.906 51.5815 120.532 49.4561 115.769C48.687 114.045 47.7255 110.972 46.6875 109.45ZM225.854 109.444C223.17 115.936 219.949 124.32 216.984 130.567L226.013 130.583C228.861 130.581 231.871 130.628 234.706 130.552C233.909 128.503 226.344 109.856 225.854 109.444ZM327.663 109.437C324.484 115.8 321.915 124.187 318.654 130.573L327.526 130.585C330.466 130.582 333.541 130.62 336.469 130.562C335.729 128.955 327.965 109.706 327.663 109.437ZM21.6162 118.221C24.8039 111.722 21.2234 102.945 13.2695 103.683C11.1896 103.887 8.48211 104.147 6.52148 104.812C6.52557 110.93 6.65653 117.544 6.50684 123.625C9.03888 123.551 13.8138 123.74 15.9922 123.088C19.0481 121.942 20.168 121.173 21.6162 118.221ZM187.814 104.497C185.836 103.581 184.319 103.731 182.221 103.856C180.11 104.138 178.751 104.384 176.664 104.828L176.677 122.268C179.881 122.227 183.44 122.355 186.509 121.474C188.886 120.619 190.865 119.524 192.017 117.099C193.073 114.876 193.037 111.634 192.206 109.337C191.428 107.201 189.851 105.461 187.814 104.497ZM107.037 36.917C107.792 36.6969 109.115 37.251 109.797 37.6289C113.539 39.7034 117.277 41.8046 121.001 43.916C124.91 46.1322 129.049 48.1031 132.705 50.7285C135.48 52.7346 136.839 55.5895 139.073 57.9092C140.253 59.1341 143.056 60.827 144.576 61.9863C144.625 62.0795 144.673 62.1624 144.719 62.2383C144.673 62.1629 144.626 62.0807 144.577 61.9883C146.375 62.8483 149.7 65.0444 151.041 66.4639C149.221 65.6543 146.067 64.1807 144.438 63.0635C144.795 63.0277 145.335 63.1845 145.705 63.2676C145.704 63.2666 145.702 63.2657 145.701 63.2646C145.331 63.1814 144.793 63.0258 144.437 63.0615C142.077 61.9346 137.845 59.8586 135.881 58.2158C134.814 56.9899 134.407 55.227 132.943 54.3545C129.973 52.5848 126.523 52.3157 123.677 50.2031C121.566 48.6361 119.591 47.0824 117.673 45.2725C118.085 46.928 119.181 49.7867 119.823 51.4238C118.49 50.3218 115.041 46.3922 113.798 45.0361C112.418 43.5313 108.736 39.6894 107.77 38.1709C105.796 40.6214 103.778 43.8204 101.988 46.2861C98.4516 51.1581 98.3058 50.7909 103.188 54.002C105.369 55.4359 107.727 57.0566 109.566 58.5234C110.845 59.1637 114.011 61.5386 115.27 62.4824C114.468 62.9922 109.917 60.0487 109.184 59.4355C109.463 59.473 109.783 59.5728 110.102 59.6895L111.007 60.0469C110.465 59.8329 109.744 59.5105 109.185 59.4355C106.861 58.3775 95.0227 50.8443 93.8145 51.3125C92.5549 51.8019 88.3802 58.5398 86.9521 60.168C83.273 64.363 79.3097 67.8969 74.8467 71.2158C73.0099 72.5819 71.0639 73.796 69.2598 75.207L69.2617 75.2109C68.727 75.5968 67.9467 76.2034 67.3711 76.4609L67.3721 76.4619C66.8344 76.897 66.7701 77.1101 66.1953 77.123C66.2862 76.6386 66.4259 76.66 66.8828 76.25L67.1162 76.0195C67.6832 75.4723 68.4006 74.8664 68.9688 74.3652L68.9678 74.3623C69.8055 73.4948 73.1193 70.496 73.249 69.7344C72.3951 69.3504 68.2728 71.325 66.9756 71.6377C68.6662 70.3421 72.2154 67.0789 73.416 65.332C71.0309 66.0346 66.9578 68.7414 64.6162 70.127L44.8359 81.8643C43.3196 82.7688 31.54 90.6693 30.5879 88.0811C32.6932 86.6351 38.4254 82.8742 39.8389 81.3506C33.8631 83.3288 30.6655 87.6182 23.5225 89.0518C28.5759 84.8024 36.1338 80.2648 41.7461 76.6191C46.3055 73.6575 49.673 70.9835 53.9727 67.8867C46.0586 66.9265 43.0736 68.0429 37.8369 73.5938C35.2426 76.3437 29.7404 79.7148 26.2812 80.8945C27.5422 80.0094 34.4516 74.6301 34.7422 73.667C33.7603 73.2333 27.3239 76.7167 25.7734 77.3516C27.8039 75.5005 29.2331 74.1583 31.7783 72.9814C32.5408 72.629 37.0403 70.6678 37.2324 70.4043C36.8712 70.0515 36.163 70.0366 35.6836 70.0479C32.2487 70.1285 24.354 75.582 20.7139 77.248L20.6797 77.1729V77.1748L20.7148 77.2529C20.0436 77.8294 12.8998 81.5794 12.0977 81.8623L12.1104 81.7334C13.237 80.8017 19.1892 76.9593 20.5352 76.3477C20.611 76.5239 20.6664 76.6363 20.6934 76.75C20.6667 76.6348 20.612 76.5212 20.5352 76.3428C20.8989 76.1152 21.1007 76.0371 21.2461 75.6211C20.4986 75.1687 16.3045 77.7325 15.2139 78.1084C14.2594 77.8891 13.4532 78.943 12.4785 78.9844L12.4775 78.9863C13.453 78.9461 14.2597 77.8897 15.2148 78.1094C14.7001 78.5661 0.964728 85.567 0 85.917V85.5117C5.06792 82.6128 10.2135 79.326 15.2607 76.5205L15.2627 76.5186C18.3504 75.003 21.8513 72.3257 25.25 70.8467C27.9783 69.6592 30.5243 68.9016 33.1914 67.5908C35.5307 66.441 38.6144 64.1517 41.0146 63.5264C44.9347 62.5055 55.0454 67.4979 58.4697 65.3896C61.7197 63.3882 68.2649 59.5014 71.1201 56.7412C72.1122 55.7821 73.9273 52.6718 75.0264 52.0254C78.1484 50.1886 81.9612 48.5495 85.1787 47L97.9629 40.9053C100.918 39.4909 103.899 37.8324 107.037 36.917ZM264.622 37.2852C266.078 38.4175 266.288 39.457 268.134 40.6807C271.728 43.0633 275.838 41.0536 278.812 42.7256C280.385 43.6106 283.784 46.6151 285.305 47.8945C288.379 50.472 291.472 53.0289 294.581 55.5635C297.443 57.9015 298.932 59.8174 302.905 59.3213C308.393 58.6363 312.961 56.5647 317.845 54.0635C319.417 53.2588 323.495 50.0852 325.035 51.541C328.111 54.4471 330.78 57.8522 333.761 60.874C338.665 66.1946 343.97 69.6054 349.9 73.6201C341.783 70.6413 337.409 67.3437 331.286 60.9902C330.57 60.2479 327.123 56.3165 326.594 56.0107C323.789 57.719 329.095 61.2939 330.315 62.5312C326.691 60.9443 325.717 59.3466 321.686 59.7656C323.461 62.449 327.576 67.6288 329.69 70.291C329.456 70.153 329.112 69.9153 328.894 69.7959C326.798 68.6524 321.728 60.3684 319.679 60.2871C318.272 60.6632 315.41 62.9886 314.41 64.0752C318.431 66.9968 322.42 69.9645 326.376 72.9775C328.625 74.6734 333.22 77.937 334.832 79.9834C332.944 79.2634 330.495 77.634 328.716 76.5605C320.337 71.5018 315.604 65.6666 305.267 64.5957C306.429 65.7062 307.673 66.8234 308.637 68.1094L308.636 68.1113L309.2 68.5508C309.79 69.0109 310.421 69.5282 310.791 70.0645L310.75 70.2891C310.099 70.178 308.764 69.0816 308.137 68.627C308.352 68.5126 308.425 68.49 308.471 68.4424C308.424 68.4888 308.35 68.512 308.138 68.625C302.173 64.2421 296.459 59.4716 290.653 54.874C284.612 50.0895 282.414 46.8299 274.238 46.4365C275.477 47.8135 278.547 49.1591 279.347 50.3965C281.153 53.1929 281.961 55.1082 284.249 57.7344C284.962 58.3514 286.074 59.1185 286.544 59.8232L286.522 60.0674C285.841 59.9806 284.416 58.7496 283.806 58.2764L282.991 57.5771C282.154 56.8743 281.255 56.1755 280.36 55.6318C281.208 59.274 282.286 61.427 285.48 63.4756C287.136 64.538 289.647 65.5583 291.074 66.5244C291.808 66.8571 292.864 67.4216 293.923 68.0068L296.792 69.6152L297.476 69.96C299.063 70.7767 300.599 71.6765 302.168 72.5371C303.916 73.4961 306.099 74.3631 307.622 75.6445C307.171 75.803 297.69 71.3393 296.595 70.8037C296.371 70.6941 296.148 70.5831 295.926 70.4707C295.924 70.4708 295.922 70.4706 295.92 70.4707C287.765 66.6386 279.98 63.5403 273.291 57.1143C271.905 55.7814 270.355 54.7454 269.242 53.1133C269.244 53.1143 269.246 53.1152 269.248 53.1162C269.247 53.1149 269.246 53.1136 269.245 53.1123C270.994 54.0468 275.016 57.3832 277.048 58.7324C278.476 59.3698 280.15 60.2971 281.594 60.7217C277.224 53.2658 271.46 46.1983 265.504 39.9531C263.631 44.2088 262.253 48.2991 260.527 52.54C262.472 51.7922 265.401 50.3331 267.158 49.8418C262.421 54.758 253.722 59.798 247.599 62.8301C246.966 63.1435 244.678 64.3031 244.091 64.4844C243.717 64.5355 243.309 64.6486 242.996 64.4893L242.994 64.4941C243.307 64.6542 243.716 64.5405 244.09 64.4893C243.594 64.8081 239.604 66.4758 239.228 66.4561L239.18 66.5684L239.236 66.3818C240.264 65.5144 242.371 64.2121 243.58 63.5732L243.585 63.5674C245.943 61.8483 248.696 60.6906 251.345 58.6748C249.584 59.4023 227.08 64.5317 226.404 64.2461C227.87 63.1254 234.968 61.4822 237.121 60.5977C241.151 58.9422 243.135 59.3927 245.814 55.2773C240.554 58.2101 229.285 61.6096 223.422 63.1016L223.094 63.2178C221.201 63.8668 215.671 65.4619 214.492 65.3574L214.526 65.2285C217.645 64.3652 220.252 62.7505 223.26 61.8906L223.181 62.0059C222.947 62.3389 222.796 62.5044 222.585 62.6699C222.796 62.5043 222.947 62.339 223.181 62.0059L223.26 61.8916C230.39 58.4572 237.197 55.1318 243.852 50.7617C248.638 47.6181 253.403 44.3601 258.208 41.2441C259.536 40.3834 263.294 37.7374 264.565 37.2422L264.622 37.2852ZM41.1602 65.2148C40.2543 65.6023 37.0863 67.3802 36.8369 68.2842L37.0381 68.4414L37.4854 68.3418C38.55 67.91 41.6011 66.8937 41.9941 65.9805C41.8501 65.4783 41.6771 65.3926 41.1602 65.2148ZM84.2041 56.2021C83.3101 57.1288 75.9783 62.6706 75.9004 63.0059L76.0928 63.1318C78.1467 62.8044 79.7298 62.1446 81.3311 60.752C82.3597 59.8574 84.5227 57.8099 84.3096 56.3105L84.2041 56.2021ZM334.317 56.0566C334.427 56.0838 334.552 56.1074 334.654 56.1602C337.648 57.7213 340.744 59.104 343.734 60.6758C344.524 61.0916 346.744 62.0004 347.024 62.7383C345.951 62.6274 335.041 57.2244 334.312 56.5498L334.317 56.0566ZM174.904 0C183.417 7.73461 190.416 18.0443 201.383 22.7168C205.547 24.4919 209.953 25.704 213.679 28.4316C220.064 32.9331 223.305 37.6173 230.32 41.3633L231.012 41.7227C231.969 42.1768 235.817 43.8106 236.095 44.4209C234.975 44.4211 231.504 43.0035 230.359 42.4922C230.663 42.4918 230.888 42.5456 231.157 42.543C230.889 42.5455 230.664 42.4918 230.36 42.4922L228.243 41.8164C229.202 43.0981 229.759 43.8579 230.907 44.96C228.178 44.1011 226.934 42.3417 224.816 40.5752C220.879 37.2905 217.133 33.0859 212.933 30.1836C214.086 32.1675 215.26 33.6779 216.467 35.4951C219.652 40.2977 221.412 42.5683 226.239 45.7578C228.88 47.4915 234.993 50.5218 236.88 52.0693L236.885 52.249C235.485 52.0299 227.16 47.8032 225.923 46.96H225.922C218.346 43.5533 217.232 36.9358 211.443 32.0732C205.553 27.1239 197.64 23.3155 191.327 18.8301C186.393 15.3246 182.48 10.7025 178.491 6.18555C177.234 4.76174 175.665 3.08796 174.487 1.65039C172.907 4.28144 171.026 7.28604 169.668 10.0078C170.279 10.8195 174.497 8.65341 175.666 9.60059C180.668 13.6544 184.741 18.9982 189.709 23.1797C192.994 25.9538 195.624 27.3893 198.283 30.7021C199.649 32.4618 200.991 34.4396 202.461 36.0469C202.181 34.8627 201.94 33.8074 201.549 32.6494C203.764 33.9979 209.595 37.4296 210.919 39.2129C214.489 44.0223 214.489 46.9051 219.936 50.9023L219.937 50.9033C222.283 52.4196 226.364 54.5912 228.378 56.333C226.778 55.8506 221.171 53.0634 219.934 52.0293L219.935 52.0283C217.812 51.1199 209.88 46.9674 208.595 44.9902C207.752 43.7134 207.569 41.6421 206.325 40.6797C204.587 39.2136 200.407 38.519 199.351 36.2588C196.51 30.1847 192.37 28.7078 187.827 24.5684C183.461 20.589 179.515 15.2399 175.212 10.9824C174.703 12.2166 172.983 14.8557 173.053 16.0127C173.131 17.2863 177.469 20.6986 178.363 21.4824C181.07 23.8479 183.752 26.2438 186.407 28.6689L186.406 28.6699C187.783 29.7899 191.216 32.6373 192.075 34.1143C191.062 33.3766 186.687 30.1213 185.887 29.374V29.373C182.036 26.2286 177.926 23.324 174.029 20.2324C173.267 19.6277 172.463 19.0714 171.645 18.5469C171.629 20.7147 170.147 27.3803 169.576 29.79C169.395 30.5564 168.379 32.3383 168.091 33.2139C169.945 34.884 172.807 36.8862 174.856 38.377L183.922 45.0293C184.771 45.6539 187.983 47.8667 188.52 48.4912C188.52 48.4927 188.521 48.4946 188.521 48.4961C189.728 49.3007 197.108 54.7057 197.421 55.4424C196.739 55.3585 188.985 50.3227 188.008 49.5508C188.473 49.5527 189.436 49.9735 189.804 50.2598L189.906 50.1895L189.904 50.1875L189.805 50.2568C189.437 49.9706 188.474 49.55 188.009 49.5479C181.171 45.7844 174.528 40.441 168.21 35.8457C167.732 35.4978 166.839 34.9685 166.264 35.0166C164.483 36.2035 163.416 39.9845 161.165 41.0771C153.739 44.6826 149.373 45.0457 143.683 51.8848L143.428 52.3105C142.841 53.2463 142.299 53.8149 141.445 54.6582C141.957 53.5576 142.64 52.4346 143.253 51.3789C144.279 49.0912 146.494 46.3144 148.612 44.9229C149.256 44.4997 150.159 44.304 150.532 43.7842L150.473 43.5312C149.547 43.3264 142.726 45.4588 141.351 45.7285C140.769 45.8427 139.753 46.4863 139.267 45.9629C141.366 44.4075 156.754 38.3136 157.288 37.1592L157.114 36.9326C155.137 36.6489 140.031 42.8027 136.873 43.6895C142.508 39.5882 148.732 33.7309 152.662 27.9512C151.143 28.4992 148.271 30.5315 146.814 31.5176L134.615 39.7832C132.456 41.2499 130.039 43.0583 127.706 44.2178C125.701 45.2141 124.238 43.9958 123.023 42.4141C126.269 40.2673 128.42 39.6426 131.723 36.6484C134.63 34.013 137.928 29.7484 140.9 27.7549C146.017 24.3232 150.925 24.3039 155.705 19.4668C157.768 17.3792 158.538 16.0949 160.262 14.0547C163.86 9.79757 168.402 3.24801 172.649 0H174.904ZM226.593 46.3057C226.966 46.7498 227.437 47.073 227.54 47.2793C227.438 47.0731 226.967 46.75 226.593 46.3057ZM209.241 39.3857C208.276 43.1291 210.405 46.3438 214.269 46.9062C214.041 45.9945 209.929 39.8405 209.241 39.3857Z" fill="black"/>
</svg>
