<svg width="189" height="72" viewBox="0 0 189 72" fill="none" xmlns="http://www.w3.org/2000/svg">
<g clip-path="url(#clip0_725_36)">
<path d="M128.733 57.4905C130.941 57.5329 134.862 57.1215 136.662 58.221C139.949 60.2281 139.267 64.7449 135.5 65.7697C136.703 67.6143 138.297 69.7999 139.582 71.6006C139.16 71.6072 138.698 71.5903 138.273 71.5827L137.756 70.8537L134.386 65.9996C132.944 66.0036 131.22 66.0512 129.799 65.9687C129.723 67.6785 129.78 69.8868 129.771 71.6288L128.742 71.5947C128.672 66.9373 128.727 62.1524 128.733 57.4905ZM129.779 65.3532C131.966 65.3638 134.841 65.7171 136.498 64.2527C138.785 61.7561 137.205 58.3319 133.929 58.1651C132.573 58.0962 131.133 58.2332 129.812 58.106C129.709 60.4863 129.833 62.9674 129.779 65.3532Z" fill="black" fill-opacity="0.984314"/>
<path d="M67.5508 57.4951C70.4615 57.4832 76.1083 56.7599 77.4651 60.0737C78.911 63.6053 76.3485 66.2429 72.7372 66.3609L68.6392 66.366C68.6511 68.1211 68.6406 69.8763 68.6074 71.6311L67.5597 71.5958L67.5508 57.4951ZM68.621 65.7242C71.1281 65.7532 73.6808 66.1934 75.6106 64.6065C76.1331 63.9912 76.6739 63.199 76.6933 62.3729C76.8165 57.1345 71.6628 58.3341 68.6468 58.119C68.6378 60.4834 68.7135 63.3971 68.621 65.7242Z" fill="black" fill-opacity="0.984314"/>
<path d="M85.1954 57.4862C85.4203 57.4837 85.699 57.4592 85.9076 57.552C86.3094 57.7308 91.3757 70.1519 91.9629 71.6166L90.7808 71.5871C90.255 70.281 89.6434 68.9994 89.1154 67.6669L85.9637 67.6658L81.5968 67.6637C81.2494 68.5386 80.3506 71.763 79.2789 71.5931C79.1729 71.1902 84.5368 58.9001 85.1954 57.4862ZM81.9009 67.0482L85.5022 67.0472L88.8754 67.0444C88.5067 66.1764 85.575 59.0982 85.3003 58.8738C84.3812 61.0956 82.899 64.9941 81.9009 67.0482Z" fill="black" fill-opacity="0.984314"/>
<path d="M147.644 57.493C148.118 57.4796 148.463 57.405 148.673 57.9142C150.555 62.4779 152.622 67.0264 154.428 71.6159L153.233 71.5836C152.742 70.2874 152.088 69.0131 151.592 67.6677L148.439 67.666L144.082 67.6606C143.622 68.6472 142.96 70.6368 142.477 71.469C142.161 71.6337 142.181 71.5752 141.776 71.5636L141.703 71.4491C141.867 70.7883 143.214 67.8135 143.548 67.041C144.92 63.8725 146.252 60.6482 147.644 57.493ZM144.374 67.0509L147.885 67.048L151.351 67.0462C150.508 65.1105 149.677 63.1698 148.858 61.2242C148.71 60.8749 147.959 59.0301 147.842 58.8453C147.521 59.4183 147.316 59.9821 147.052 60.5786C146.115 62.6992 145.327 64.9436 144.374 67.0509Z" fill="black" fill-opacity="0.984314"/>
<path d="M51.6903 57.5004C51.919 57.4908 52.1977 57.4581 52.4134 57.5446C52.8036 57.7011 57.7938 69.9741 58.4836 71.6231L57.2717 71.5786C56.7733 70.3059 56.1392 68.9583 55.6129 67.6669L52.4641 67.6657L48.1077 67.669C47.7274 68.6082 47.3566 69.5565 46.978 70.4962C46.757 71.0444 46.4526 71.6915 45.7747 71.5918C45.6771 71.2969 51.0695 58.873 51.6903 57.5004ZM48.4085 67.039L52.095 67.0472L55.3711 67.0438C54.9743 66.1092 52.0464 59.0678 51.8125 58.8665C50.7846 61.3303 49.516 64.6825 48.4085 67.039Z" fill="black" fill-opacity="0.984314"/>
<path d="M158.022 57.4687C158.357 57.4788 158.595 57.4943 158.927 57.5368C159.331 57.7375 164.587 66.8314 165.328 68.0861L169.417 61.2523C170.09 60.1281 170.784 58.9459 171.48 57.83C171.552 57.7139 171.754 57.5637 171.882 57.521C172.224 57.4072 172.272 57.4292 172.561 57.5476C172.682 58.0298 172.646 61.0629 172.646 61.8075L172.627 71.6266L171.603 71.592C171.647 67.9067 171.615 64.1228 171.599 60.4326L171.603 58.8793C169.874 61.8728 168.004 64.8128 166.253 67.7961C166.033 68.172 165.439 69.2264 165.043 69.3394C164.302 68.839 159.327 60.2245 158.677 58.8944C158.592 61.7187 158.702 64.5759 158.656 67.4001C158.642 68.2321 158.816 71.1078 158.417 71.6762L158.267 71.6901C158.147 71.6037 158.042 71.4498 158.039 71.3018C158.007 69.8512 158.018 68.3742 158.016 66.9244L158.022 57.4687Z" fill="black" fill-opacity="0.984314"/>
<path d="M96.1916 58.7395C96.1344 60.4903 96.3346 70.8137 96.0929 71.4981C96.0624 71.5828 95.9747 71.5971 95.8954 71.6342L95.6969 71.5543C95.6628 71.4948 95.6176 71.4172 95.5622 71.3214C95.5751 66.9989 95.5585 62.6747 95.5484 58.3523C95.5474 58.0022 95.5234 57.7144 95.708 57.5338C96.2276 57.5149 96.522 57.4472 96.8745 57.9049C99.9688 61.9265 102.724 66.3593 105.853 70.3372C105.763 68.235 105.778 64.8788 105.85 62.7691C106.158 63.531 105.813 67.5113 105.961 68.5787C106.059 69.2848 106.163 70.9314 106.036 71.6133C105.655 71.6201 105.4 71.62 105.163 71.2924C104.176 69.9334 103.202 68.5635 102.224 67.1984C100.197 64.3908 98.1859 61.5712 96.1916 58.7395Z" fill="black" fill-opacity="0.984314"/>
<path d="M21.8882 57.4868C22.1896 57.4902 22.6961 57.451 22.9229 57.6095C23.0298 58.8728 22.9688 60.992 22.9687 62.3494L22.9544 70.9681C23.914 70.99 30.7929 70.8996 31.1291 71.059L31.0635 71.5313C30.6216 71.6406 28.5552 71.6116 27.9821 71.6112L21.875 71.5924C22.015 67.1809 21.8872 61.9682 21.8882 57.4868Z" fill="black" fill-opacity="0.984314"/>
<path d="M34.6016 57.4982C34.8656 57.4965 35.3962 57.4575 35.5805 57.6137C35.6875 58.9432 35.6234 60.9464 35.6232 62.3564L35.6097 70.9707C37.4965 70.994 39.4016 70.9656 41.287 70.9818C41.7476 70.9858 43.4341 70.9504 43.8088 71.0298L43.7427 71.5536C43.1024 71.6424 41.2868 71.6066 40.5964 71.6065L34.5977 71.6L34.6016 57.4982Z" fill="black" fill-opacity="0.984314"/>
<path d="M15.8409 71.5806L15.7548 71.5553C15.6855 71.4294 15.5868 58.3854 15.7283 57.6028C15.9292 57.4414 16.1 57.5061 16.411 57.5146L16.4098 57.5724C16.3868 59.0206 16.6228 70.9081 16.3496 71.4649C16.1603 71.5235 16.0322 71.5462 15.8409 71.5806Z" fill="black" fill-opacity="0.984314"/>
<path d="M105.85 62.769C105.814 61.8849 105.666 58.1256 106.059 57.5752L106.206 57.5625C106.564 58.0071 106.428 61.6516 106.428 62.5264L106.432 71.4591L106.318 71.602L106.036 71.6132C106.163 70.9313 106.059 69.2847 105.961 68.5786C105.814 67.5111 106.159 63.5309 105.85 62.769Z" fill="black" fill-opacity="0.968627"/>
<path d="M16.4099 57.5146L16.6935 57.5734C16.827 58.08 16.7376 61.3342 16.7381 62.0254L16.7405 68.0087C16.7405 69.067 16.7768 70.4465 16.7036 71.4792C16.513 71.7039 16.1221 71.6123 15.8398 71.5807C16.0312 71.5463 16.1592 71.5236 16.3485 71.465C16.6218 70.9082 16.3857 59.0207 16.4087 57.5725L16.4099 57.5146Z" fill="black" fill-opacity="0.972549"/>
<path d="M92.0547 0H92.339C92.5771 1.15207 92.7423 3.60245 92.8696 4.8697L93.8737 14.8898C93.8663 15.2514 93.965 16.3963 94.0739 16.733L94.1099 16.9355C94.2779 17.048 94.4246 17.0127 94.635 17.0009C94.7218 16.4479 94.8261 15.8682 94.8381 15.311C95.0549 13.884 95.1435 12.1817 95.3032 10.7286C95.6926 7.18443 95.9261 3.52897 96.3866 0H96.7114C96.8194 0.6374 96.5629 2.70095 96.4881 3.45476L95.8024 10.3946C95.7166 11.2711 95.4933 13.0514 95.4896 13.8767C95.3484 14.4432 95.1961 16.4822 95.1878 17.1213C95.281 16.7087 95.6576 15.1378 95.664 14.7909L97.5448 5.33314C97.7091 4.50822 98.3025 0.803216 98.7122 0.426842L98.8174 0.491091C99.0158 1.42788 96.537 12.6854 96.1937 14.695C95.9898 15.4467 95.7941 16.3712 95.7517 17.1492C95.9879 16.4202 96.2057 15.6857 96.406 14.946L99.4043 5.09128C99.5714 4.54004 100.467 1.13504 100.794 0.938935L101.001 1.0019C101.125 1.40784 100.424 3.3089 100.261 3.84727L97.6297 12.5737C97.2522 13.8263 96.5241 15.9868 96.2814 17.1991C97.0178 15.5789 102.39 2.00504 102.869 1.64039C102.981 1.70551 103.009 1.70078 103.044 1.83416C103.16 2.28505 97.3971 15.6978 96.7576 17.3735C97.2495 16.7402 98.5756 14.1209 99.0158 13.2902C100.411 10.6403 101.824 7.99994 103.254 5.36927C103.681 4.58176 104.299 3.14003 104.929 2.56568L105.003 2.65172C104.849 3.70016 103.53 5.81725 102.958 6.88999L99.3443 13.6769C98.7316 14.8285 97.8133 16.4286 97.3187 17.5941C98.1696 16.469 99.1072 14.9709 99.8981 13.7791L104.393 7.0297C104.821 6.39537 106.189 4.13072 106.732 3.8613L106.848 3.93057C106.838 4.10433 106.784 4.29249 106.693 4.43843C103.828 8.99209 100.41 13.4904 97.6352 18.0683C99.085 16.4581 107.727 5.46668 108.556 5.05853L108.673 5.08739C108.695 5.52307 107.288 7.09316 106.947 7.51161L101.12 14.6258C100.407 15.4933 98.8229 17.2904 98.2729 18.1322L98.3754 18.1422L106.991 9.49218C107.536 8.95111 109.536 6.84539 110.03 6.4981C110.244 6.50363 110.161 6.47257 110.34 6.64046C110.271 6.96132 109.3 7.86423 108.993 8.18452C105.623 11.6902 102.058 15.0339 98.6762 18.5267C99.5465 17.9961 101.325 16.4571 102.193 15.7431L108.608 10.4588C109.29 9.89483 110.994 8.3859 111.725 8.09553L111.824 8.23406C111.112 9.19122 108.421 11.2386 107.33 12.1347L98.9466 19.0114C99.8316 18.6136 102.065 17.0479 102.941 16.4578L109.749 11.8844C110.526 11.3653 112.106 10.2162 112.93 9.97865L113.035 10.0316C112.227 11.4207 99.9848 18.5243 99.5335 19.3626C100.237 19.1541 101.733 18.2424 102.596 17.7882C106.358 15.8085 110.157 13.6807 113.957 11.7612C114.037 11.7751 114.104 11.7868 114.159 11.7962C114.179 11.8479 114.233 11.9335 114.211 11.985C114.075 12.3164 101.572 19.005 100.179 19.6048C99.994 19.7002 99.5391 19.8964 99.4616 20.0526C99.8381 19.9899 99.9165 19.9579 100.257 19.7836C101.915 19.0742 114.47 13.6853 115.109 13.7601L115.17 13.9316C114.747 14.5398 101.526 19.5846 99.8759 20.45C100.406 20.6398 115.093 15.607 115.911 15.8462C115.665 16.434 112.811 17.1235 112.049 17.3547L104.2 19.7336C102.957 20.1079 100.915 20.6538 99.7587 21.1362C101.531 20.8047 115.891 17.8394 116.366 17.9743L116.449 18.108C116.108 18.5225 112.064 19.17 111.318 19.325C107.497 20.1127 103.669 20.8678 99.8344 21.5903C102.014 21.6569 116.143 19.8677 116.719 20.1531L116.769 20.3651C116.53 20.6058 114.24 20.7146 113.727 20.7672L103.78 21.7783C103.278 21.8266 100.63 22.0257 100.323 22.1745C100.842 22.4998 116.354 21.9031 116.871 22.4118L116.853 22.5617C116.4 22.833 101.989 22.6056 100.087 22.7436L100.103 22.8128C100.638 22.9289 101.399 22.8932 102.008 22.9541L111.532 23.9111C113.13 24.0691 114.789 24.2246 116.387 24.4083C116.645 24.4379 116.645 24.46 116.782 24.619L116.703 24.7862C115.914 25.0303 101.843 23.3193 99.7965 23.2322C100.838 23.583 103.591 24.0504 104.811 24.2892L114.251 26.1754C113.969 26.4222 113.522 26.3822 113.132 26.3959C112.725 26.3832 109.712 25.752 109.118 25.6343L99.8547 23.7704C100.834 24.2243 103.182 24.8778 104.293 25.2136L112.305 27.6489C113.412 27.9887 115.205 28.3958 116.067 29.0201C115.455 29.1484 113.796 28.5888 113.13 28.3866C109.415 27.2589 105.687 26.1446 101.975 25.0026C101.707 24.9198 101.372 24.7818 101.101 24.7962C101.198 24.972 104.685 26.6182 105.001 26.5624C106.343 26.3255 106.219 26.8815 107.571 27.6463C108.326 28.0736 114.966 30.461 115.01 31.0159C114.353 31.145 108.971 28.7435 108.05 28.3511C109.077 29.3813 110.136 30.5586 111.417 31.2627C112.405 31.806 113.399 32.3425 114.39 32.8826C114.124 33.374 113.734 33.9609 113.433 34.4442C113.102 34.1887 112.563 33.8005 112.16 33.7216C111.627 33.9808 111.898 34.4203 111.634 34.7507C110.798 34.0451 106.323 27.9284 105.266 28.6572C104.987 29.2372 105.009 30.6445 104.992 31.3318C104.342 30.2041 102.669 28.2541 101.677 27.4343C102.17 29.1786 102.959 30.9812 103.481 32.7892C101.842 31.3024 100.368 29.7209 98.7749 28.1935C98.6098 28.0357 98.3689 27.9428 98.1456 27.9097C97.4922 28.129 97.4949 29.0148 97.5152 29.6145C97.5688 31.2141 97.471 32.8649 97.5134 34.4559C96.3211 33.236 95.1214 31.9375 94.0518 30.6193C93.4132 29.8328 92.3962 28.4453 93.0911 27.4495C93.3412 27.0917 93.7906 27.0845 94.1958 27.0164C94.1247 25.616 93.7417 24.1667 93.8035 22.7853C93.8497 21.7616 95.0033 22.2848 95.58 21.821C95.6935 21.0802 94.3508 19.7937 93.6633 19.6801C93.1372 19.5932 92.28 20.3742 91.8995 20.7597C90.6808 21.9869 88.6825 23.4078 88.2861 25.1783C88.1132 25.9501 90.1164 28.1579 90.6431 28.7448C92.6601 30.9927 94.7707 33.1904 96.5241 35.6558C95.1638 34.7076 92.0748 32.1618 90.9069 31.5882C90.8229 32.187 90.822 32.8488 90.8067 33.4576C90.2366 32.8449 89.0958 31.9052 88.4292 31.3914C87.9711 31.8666 87.8059 32.1099 87.4771 32.677C87.7357 33.6255 88.0874 34.4476 88.4547 35.3577C87.0381 34.2592 85.6442 33.1331 85.0216 31.352C84.8562 30.879 84.7616 30.033 84.9937 29.5784C85.8024 29.043 86.6614 30.1056 87.2395 29.5299C87.3517 28.9614 86.4131 26.6201 85.877 26.3406C84.7897 26.2782 82.9207 27.8012 82.0595 28.4833L83.6883 28.4914C81.4746 29.6968 79.0007 30.316 76.9638 32.0289C76.4686 32.4454 75.3568 33.4207 74.7276 33.3883C74.4976 33.2164 74.5573 33.314 74.5104 33.0193C74.7106 32.6057 75.8028 32.1499 76.2965 31.8277C77.7044 30.9088 79.4902 29.5741 80.6877 28.4226C79.715 28.7562 73.9872 31.2903 73.5588 31.1886L73.697 31.2312L73.5737 31.1164C73.672 30.8971 74.1236 30.5735 74.3522 30.4802C76.7707 29.4924 79.229 28.5554 81.6015 27.4592C82.3415 27.1173 83.0154 26.4899 83.6228 25.9507C81.915 26.553 74.2022 29.0545 72.8557 29.031L72.8281 28.868L72.7108 28.984L72.8601 29.0204C72.8724 28.9662 72.8872 28.9015 72.9043 28.8267C76.6505 27.4265 80.6838 26.547 84.4374 25.1606C84.7117 25.0592 85.1983 24.6337 85.3611 24.494C84.1397 24.7532 72.8356 27.0919 72.375 26.977L72.2959 26.7663C72.6339 26.336 85.9816 24.0808 87.6741 23.5039L87.6916 23.3886C86.8839 23.2561 85.3281 23.5985 84.452 23.692C83.0885 23.8375 72.6048 24.9702 72.1643 24.8226C72.0264 24.7764 72.0276 24.7236 71.9644 24.5997C72.1316 24.4165 72.608 24.3732 72.8568 24.3542C77.9816 23.9623 83.1943 23.1548 88.3164 22.8705L88.3495 22.793C87.9024 22.476 74.4174 22.8477 72.7325 22.6664C72.4707 22.6383 72.2533 22.6563 71.9492 22.5334L72.0361 22.4367C73.0826 22.1022 79.1958 22.2936 80.864 22.2209C83.5237 22.2518 86.4891 22.2887 89.1431 22.2312C89.2234 22.0279 89.3428 22.0682 89.3553 21.7956C89.279 21.7141 89.0384 21.6306 88.9198 21.5802C89.3613 21.5962 89.5428 21.6729 89.8323 21.4183L89.7986 21.2728C89.5098 21.1029 89.4259 21.1073 89.0864 21.087C87.4482 20.6149 73.4227 16.5033 72.848 16.0711L72.8422 15.9167C73.3445 15.7049 75.8019 16.5939 76.5036 16.8059L85.1302 19.3985C85.7912 19.5973 88.2725 20.4226 88.7767 20.5117L88.8355 20.4496C88.0594 20.028 85.9277 19.2336 84.9956 18.847L76.5309 15.3251C75.7127 14.9804 74.1527 14.4685 73.5642 13.9679L73.6585 13.7809L73.5066 13.8771L73.6032 13.7851C74.4357 13.839 77.0535 15.043 78.0109 15.4374L85.0517 18.3377C86.4951 18.9377 88.0701 19.646 89.5246 20.166C87.5806 18.9709 74.9442 12.6566 74.5024 11.894L74.6142 11.8099C75.4416 11.7217 87.3317 18.7343 89.3321 19.4562L89.3689 19.4128C88.3058 18.6336 87.1074 17.9067 86.0004 17.1692L79.1668 12.5995C78.1078 11.8883 77.069 11.1306 75.9775 10.4674C75.7797 10.3472 75.7145 10.243 75.6593 10.0308C76.105 9.69563 77.8466 11.2005 78.3473 11.4594C79.4609 12.0354 89.1607 18.8985 89.5883 18.9162C89.4379 18.4758 78.6835 10.0651 77.5268 8.95548C77.3235 8.76041 77.0742 8.66548 76.9232 8.3296L77.0501 8.14565C77.4824 8.16138 80.3881 10.6776 80.8906 11.0883L87.6391 16.6016C88.0383 16.9291 89.6395 18.3594 89.9618 18.4482C89.8569 17.978 78.5484 7.33655 78.3822 6.67959L78.5327 6.56118C78.5893 6.56105 78.6557 6.5609 78.7319 6.56073C81.6869 9.33434 87.5722 15.3328 90.161 17.9094L90.2496 17.868C90.1136 17.5557 88.5594 15.7611 88.2065 15.3361L82.6177 8.51104C82.1055 7.88517 80.0782 5.69757 80.0669 5.05641L80.2174 5.03651C80.8394 5.42706 81.9812 7.01218 82.5239 7.66069L87.7998 14.0531C88.8175 15.299 89.9104 16.721 90.985 17.8896C90.386 16.7923 89.2404 15.2257 88.5144 14.1374L83.9579 7.29198C83.4133 6.4816 82.0275 4.63276 81.78 3.8482L81.8389 3.7407C82.3929 3.845 82.583 4.41326 82.8343 4.73167C83.7866 5.93859 90.8071 17.0426 91.2642 17.256C91.2143 16.9392 90.1313 15.0292 89.8933 14.5902L85.6433 6.61956C85.0241 5.45946 84.2694 4.22761 83.7596 3.03052C83.6478 2.76798 83.6745 2.75766 83.771 2.56314C84.3343 2.87197 85.3664 5.11536 85.7195 5.77318L89.6111 13.0243C90.3288 14.3722 91.1756 16.1083 91.9735 17.3569C91.3235 15.2609 85.522 2.43585 85.69 1.56638C86.2214 1.74418 87.3077 4.7919 87.6043 5.50398L90.6099 12.7326C91.2024 14.1726 91.8477 15.8995 92.5272 17.264C92.1838 15.8856 91.6276 14.2101 91.2089 12.8322L88.8469 5.06281C88.4973 3.91348 88.0538 2.52179 87.731 1.34876C87.6872 1.18953 87.8038 1.05205 87.89 0.946412C88.0496 0.979625 88.0832 0.949902 88.1502 1.15981C88.5342 2.3632 88.9036 3.64451 89.2706 4.84706L91.8153 13.1943C91.9972 13.8078 92.6583 16.2798 92.9278 16.6295C93.0505 16.8982 93.0874 16.958 93.2674 17.1928C93.4021 17.0456 93.367 16.6469 93.3763 16.4015L93.4981 16.774L93.5636 16.7851C93.583 16.0163 93.2581 13.382 93.1723 12.5202L92.2709 3.5276C92.2027 2.84309 91.9057 0.491731 92.0547 0ZM104.419 27.0146C104.19 26.6898 102.663 26.1114 102.273 26.0221C102.906 26.7438 103.389 27.2381 104.419 27.0146Z" fill="black" fill-opacity="0.988235"/>
<path d="M116.521 72C115.656 71.7528 114.999 71.5659 114.198 71.135C109.248 68.4716 109.317 60.5858 114.233 57.902C115.891 57.0154 117.833 56.8273 119.63 57.3794C121.417 57.9157 122.913 59.1483 123.783 60.7999C124.75 62.6155 124.891 65.1023 124.285 67.0543C123.741 68.8399 122.506 70.334 120.856 71.205C120.088 71.6023 119.45 71.7607 118.631 72H116.521ZM117.774 71.3575C124.097 70.7062 125.243 62.3118 121.059 58.9495C120.068 58.1483 118.827 57.7193 117.553 57.7365C109.441 58.1745 109.934 71.4099 117.774 71.3575Z" fill="black" fill-opacity="0.984314"/>
<path d="M178.658 67.6729C178.271 68.6668 177.458 71.2683 176.651 71.7269L176.447 71.6506C176.274 71.2948 176.536 70.6307 176.722 70.3286C177.805 68.567 181.425 58.3621 182.399 57.5291C182.758 57.4037 183.004 57.4382 183.202 57.818C183.694 58.7568 184.076 59.7783 184.488 60.7591L187.478 67.8889C187.767 68.5761 188.635 70.7664 188.962 71.3222L188.999 71.3834V71.6264L187.827 71.5747C187.398 70.4 186.673 68.8474 186.166 67.669L178.658 67.6729ZM178.978 67.0401L182.585 67.0482L185.928 67.0479C185.533 66.0908 182.727 59.2348 182.359 58.858C181.333 61.4304 180.107 64.5319 178.978 67.0401Z" fill="black" fill-opacity="0.984314"/>
<path d="M0 57.4902L1.24614 57.5064L4.54892 65.6709C5.12929 67.1044 5.79505 68.8744 6.43839 70.2559C6.73366 69.3022 7.14316 68.3513 7.52107 67.4248C8.79683 64.2967 10.0306 61.1501 11.3315 58.033C11.413 57.8378 11.5026 57.6447 11.6911 57.5384L12.1321 57.5291C12.1923 57.7311 12.1523 57.8971 12.0596 58.0856C11.243 59.7485 6.98751 71.2508 6.36313 71.5596C6.15164 71.5588 6.02137 71.5999 5.85943 71.4419C5.3164 70.912 1.70297 61.7038 1.1074 60.2673C0.79911 59.5238 0.477892 58.36 0 57.7427V57.4902Z" fill="black" fill-opacity="0.984314"/>
<path d="M87.1014 21.2691C82.7114 20.2992 78.2025 19.541 73.7942 18.6361C73.3314 18.5412 72.5158 18.3255 72.1641 18.0105C73.2126 17.8119 84.0772 20.2564 85.9481 20.5503C86.5892 20.651 88.5157 21.1794 89.0865 21.087C89.426 21.1072 89.5099 21.1029 89.7986 21.2727L89.8324 21.4183C89.5429 21.6729 89.3614 21.5962 88.9199 21.5802C88.8057 21.595 87.3974 21.3084 87.1014 21.2691Z" fill="black" fill-opacity="0.980392"/>
<path d="M87.1854 21.9958L77.7604 21.0746C76.8401 20.9852 72.4915 20.7108 72.0977 20.2864L72.1959 20.1784C72.9426 20.0418 75.935 20.4189 76.9094 20.513L86.3729 21.4403C87.369 21.5424 88.3635 21.6608 89.3557 21.7955C89.3432 22.068 89.2238 22.0278 89.1435 22.2311C88.7373 22.0696 87.6706 22.0283 87.1854 21.9958Z" fill="black" fill-opacity="0.984314"/>
<path d="M92.9282 16.6297C92.955 16.2634 92.5138 14.2681 92.3505 13.4294C91.5242 9.20003 90.5969 4.85971 89.8203 0.611211C89.8571 0.53246 89.8876 0.467232 89.9118 0.415527C90.4821 0.786916 90.7829 3.27626 90.9364 4.0449L92.1362 9.96937C92.2951 10.7561 93.3601 15.8316 93.3767 16.4017C93.3675 16.6471 93.4025 17.0459 93.2678 17.193C93.0879 16.9583 93.0509 16.8984 92.9282 16.6297Z" fill="black" fill-opacity="0.976471"/>
<path d="M94.1527 0H94.591L94.5947 11.8465C94.5938 12.5255 94.5375 16.5509 94.6353 17.0009C94.4249 17.0127 94.2782 17.048 94.1102 16.9355L94.0742 16.733C94.1896 16.3531 94.1444 12.416 94.1434 11.728L94.1527 0Z" fill="black" fill-opacity="0.976471"/>
<path d="M94.5914 0H94.704L94.6957 10.0045C94.6966 10.7722 94.6043 15.0258 94.8387 15.311C94.8267 15.8682 94.7224 16.4479 94.6357 17.0009C94.5379 16.5509 94.5942 12.5255 94.5951 11.8465L94.5914 0Z" fill="black" fill-opacity="0.101961"/>
<path d="M94.0535 0H94.1541L94.1449 11.728C94.1458 12.416 94.191 16.3531 94.0757 16.733C93.9668 16.3963 93.868 15.2514 93.8754 14.8898C93.9787 14.766 94.0517 14.6262 94.0498 14.4621C94.0387 11.4683 94.0295 8.47256 94.0341 5.47857C94.0369 3.67034 93.9787 1.8033 94.0535 0Z" fill="black" fill-opacity="0.105882"/>
<path d="M114.252 26.1753C114.86 26.2814 116.053 26.4474 116.516 26.8268C116.05 27.0761 113.701 26.5749 113.133 26.3958C113.523 26.3821 113.97 26.4221 114.252 26.1753Z" fill="black" fill-opacity="0.964706"/>
<path d="M87.1882 21.9961C87.6734 22.0286 88.7401 22.0699 89.1463 22.2314C86.4923 22.2889 83.5269 22.252 80.8672 22.221C81.1581 22.0121 86.2787 22.1896 87.1218 22.1297L87.1882 21.9961Z" fill="black" fill-opacity="0.203922"/>
<path d="M95.4893 13.8765C95.6314 14.4994 95.361 14.347 95.6637 14.7907C95.6572 15.1376 95.2807 16.7085 95.1875 17.1211C95.1958 16.4819 95.3481 14.443 95.4893 13.8765Z" fill="black" fill-opacity="0.0588235"/>
<path d="M87.1039 21.269C87.3998 21.3084 88.8082 21.5949 88.9223 21.5801C89.0409 21.6304 89.2815 21.714 89.3578 21.7955C88.3656 21.6608 87.3711 21.5424 86.375 21.4403C86.6854 21.4156 86.8365 21.4235 87.1039 21.269Z" fill="black" fill-opacity="0.0980392"/>
<path d="M95.7539 17.149C95.7964 16.371 95.992 15.4465 96.196 14.6948L96.4082 14.9458C96.208 15.6855 95.9902 16.4201 95.7539 17.149Z" fill="black" fill-opacity="0.0392157"/>
<path d="M100.26 19.7838C99.9198 19.9582 99.8414 19.9901 99.4648 20.0529C99.5424 19.8966 99.9973 19.7004 100.182 19.605L100.26 19.7838Z" fill="black" fill-opacity="0.439216"/>
</g>
<defs>
<clipPath id="clip0_725_36">
<rect width="189" height="72" fill="white"/>
</clipPath>
</defs>
</svg>
