<svg xmlns="http://www.w3.org/2000/svg" width="189" height="72" fill="none" viewBox="0 0 189 72"><g fill="#000" clip-path="url(#a)"><path fill-opacity=".984" d="M128.733 57.49c2.208.043 6.129-.369 7.929.731 3.287 2.007 2.605 6.524-1.162 7.549 1.203 1.844 2.797 4.03 4.082 5.83-.422.007-.884-.01-1.309-.017l-.517-.73-3.37-4.853c-1.442.004-3.166.051-4.587-.031-.076 1.71-.019 3.918-.028 5.66l-1.029-.034c-.07-4.658-.015-9.443-.009-14.105m1.046 7.863c2.187.01 5.062.364 6.719-1.1 2.287-2.497.707-5.921-2.569-6.088-1.356-.069-2.796.068-4.117-.059-.103 2.38.021 4.861-.033 7.247M67.55 57.495c2.912-.012 8.558-.735 9.915 2.579 1.446 3.531-1.117 6.169-4.728 6.287l-4.098.005q.018 2.633-.032 5.265l-1.047-.035zm1.071 8.23c2.507.028 5.06.468 6.99-1.118.522-.616 1.063-1.408 1.082-2.234.124-5.238-5.03-4.039-8.046-4.254-.01 2.364.066 5.278-.026 7.605m16.574-8.238c.225-.002.504-.027.713.066.401.179 5.468 12.6 6.055 14.065l-1.182-.03c-.526-1.306-1.138-2.588-1.666-3.92l-3.151-.001-4.367-.002c-.348.875-1.246 4.099-2.318 3.93-.106-.404 5.258-12.694 5.916-14.108m-3.294 9.562h3.601l3.373-.004c-.368-.868-3.3-7.946-3.575-8.17-.919 2.222-2.401 6.12-3.4 8.174m65.744-9.555c.474-.013.819-.088 1.029.421 1.882 4.564 3.949 9.112 5.755 13.702l-1.195-.032c-.491-1.297-1.145-2.57-1.641-3.916l-3.153-.002-4.357-.005c-.46.986-1.122 2.976-1.605 3.808-.316.165-.296.106-.701.095l-.073-.115c.164-.66 1.511-3.635 1.845-4.408 1.372-3.168 2.704-6.393 4.096-9.548m-3.27 9.558 3.511-.003 3.466-.002a515 515 0 0 1-2.493-5.822c-.148-.35-.899-2.194-1.016-2.379-.321.573-.526 1.137-.79 1.734-.937 2.12-1.725 4.365-2.678 6.472M51.69 57.5c.229-.01.508-.042.723.045.39.156 5.38 12.43 6.07 14.078l-1.211-.044c-.499-1.273-1.133-2.62-1.66-3.912l-3.148-.001-4.356.003c-.38.94-.751 1.888-1.13 2.827-.221.548-.525 1.196-1.203 1.096-.098-.295 5.294-12.719 5.915-14.092m-3.282 9.539 3.687.008 3.276-.003c-.397-.935-3.325-7.976-3.559-8.177-1.027 2.463-2.296 5.816-3.404 8.172m109.614-9.57c.335.01.573.025.905.068.404.2 5.66 9.294 6.401 10.55l4.089-6.835c.673-1.124 1.367-2.306 2.063-3.422a.95.95 0 0 1 .402-.309c.342-.114.39-.092.679.027.121.482.085 3.515.085 4.26l-.019 9.819-1.024-.035c.044-3.685.012-7.47-.004-11.16l.004-1.553c-1.729 2.994-3.599 5.934-5.35 8.917-.22.376-.814 1.43-1.21 1.543-.741-.5-5.716-9.114-6.366-10.445-.085 2.825.025 5.682-.021 8.506-.014.832.16 3.708-.239 4.276l-.15.014c-.12-.086-.225-.24-.228-.388-.032-1.45-.021-2.928-.023-4.378zm-61.83 1.271c-.058 1.75.143 12.074-.1 12.758-.03.085-.117.1-.197.136l-.198-.08-.135-.233c.013-4.322-.004-8.646-.014-12.969 0-.35-.025-.638.16-.818.52-.02.814-.087 1.166.37 3.095 4.022 5.85 8.455 8.979 12.433-.09-2.102-.075-5.458-.003-7.568.308.762-.037 4.742.111 5.81.098.706.202 2.352.075 3.034-.381.007-.636.007-.873-.32-.987-1.36-1.961-2.73-2.939-4.095a886 886 0 0 1-6.032-8.458m-74.304-1.253c.302.003.808-.036 1.035.122.107 1.264.046 3.383.046 4.74l-.015 8.62c.96.021 7.839-.07 8.175.09l-.066.472c-.441.11-2.508.08-3.08.08l-6.108-.019c.14-4.411.012-9.624.013-14.105m12.714.011c.264-.002.794-.04.979.116.106 1.33.042 3.332.042 4.742l-.013 8.615c1.886.023 3.792-.005 5.677.01.46.005 2.147-.03 2.522.049l-.066.524c-.64.088-2.456.053-3.147.052l-5.998-.006zM15.84 71.58l-.085-.025c-.07-.126-.168-13.17-.027-13.952.201-.162.372-.097.683-.088l-.001.057c-.023 1.449.213 13.336-.06 13.893-.19.058-.318.081-.51.116"/><path fill-opacity=".969" d="M105.85 62.769c-.036-.884-.184-4.643.209-5.194l.147-.013c.358.445.222 4.09.222 4.964l.004 8.933-.114.143-.282.011c.127-.682.023-2.328-.075-3.034-.147-1.068.198-5.048-.111-5.81"/><path fill-opacity=".973" d="m16.41 57.515.284.058c.133.507.044 3.761.044 4.452l.003 5.984c0 1.058.036 2.438-.037 3.47-.191.225-.582.133-.864.102.191-.035.32-.057.509-.116.273-.557.037-12.444.06-13.893z"/><path fill-opacity=".988" d="M92.055 0h.284c.238 1.152.403 3.602.53 4.87l1.005 10.02c-.008.361.091 1.506.2 1.843l.036.203c.168.112.315.077.525.065.087-.553.191-1.133.203-1.69.217-1.427.306-3.13.465-4.582.39-3.545.623-7.2 1.084-10.729h.324c.108.637-.148 2.701-.223 3.455l-.686 6.94c-.085.876-.309 2.656-.312 3.482-.142.566-.294 2.605-.302 3.244.093-.412.47-1.983.476-2.33l1.88-9.458c.165-.825.758-4.53 1.168-4.906l.105.064c.199.937-2.28 12.194-2.623 14.204-.204.752-.4 1.676-.442 2.454a47 47 0 0 0 .654-2.203l2.998-9.855c.167-.551 1.063-3.956 1.39-4.152l.207.063c.124.406-.577 2.307-.74 2.845l-2.631 8.727c-.378 1.252-1.106 3.413-1.349 4.625.737-1.62 6.109-15.194 6.588-15.559.112.066.14.06.175.194.116.451-5.647 13.864-6.286 15.54.492-.634 1.818-3.253 2.258-4.084q2.093-3.975 4.238-7.92c.427-.788 1.045-2.23 1.675-2.804l.074.086c-.154 1.048-1.473 3.165-2.045 4.238l-3.614 6.787c-.612 1.152-1.53 2.752-2.025 3.917.85-1.125 1.788-2.623 2.58-3.815l4.494-6.75c.428-.634 1.796-2.898 2.339-3.168l.116.07c-.01.173-.064.361-.155.507-2.865 4.554-6.283 9.052-9.058 13.63 1.45-1.61 10.092-12.601 10.921-13.01l.117.03c.022.435-1.385 2.005-1.726 2.424l-5.827 7.114c-.713.867-2.297 2.664-2.847 3.506l.102.01 8.616-8.65c.545-.54 2.545-2.647 3.039-2.994.214.006.131-.025.31.142-.069.321-1.04 1.224-1.347 1.545-3.37 3.505-6.935 6.849-10.317 10.342.87-.53 2.649-2.07 3.517-2.784l6.415-5.284c.682-.564 2.386-2.073 3.117-2.363l.099.138c-.712.957-3.403 3.005-4.494 3.9l-8.383 6.877c.885-.397 3.118-1.963 3.994-2.553l6.808-4.574c.777-.519 2.357-1.668 3.181-1.905l.105.053c-.808 1.389-13.05 8.492-13.501 9.33.703-.208 2.199-1.12 3.062-1.574 3.762-1.98 7.561-4.107 11.361-6.027l.202.035c.02.052.074.138.052.189-.136.331-12.639 7.02-14.032 7.62-.185.095-.64.291-.717.448.376-.063.454-.095.795-.27 1.658-.709 14.213-6.098 14.852-6.023l.061.172c-.423.608-13.644 5.653-15.294 6.518.53.19 15.217-4.843 16.035-4.604-.246.588-3.1 1.277-3.862 1.509l-7.849 2.379c-1.243.374-3.285.92-4.441 1.402 1.772-.331 16.132-3.297 16.607-3.162l.083.134c-.341.415-4.385 1.062-5.131 1.217a686 686 0 0 1-11.484 2.265c2.18.067 16.309-1.722 16.885-1.437l.05.212c-.239.24-2.529.35-3.042.402l-9.947 1.011c-.502.049-3.15.248-3.457.396.519.326 16.031-.27 16.548.238l-.018.15c-.453.271-14.864.044-16.766.182l.016.069c.535.116 1.296.08 1.905.141l9.524.957c1.598.158 3.257.314 4.855.497.258.03.258.052.395.211l-.079.167c-.789.244-14.86-1.467-16.907-1.554 1.042.351 3.795.818 5.015 1.057l9.44 1.886c-.282.247-.729.207-1.119.22-.407-.012-3.42-.643-4.014-.76l-9.263-1.865c.979.454 3.327 1.108 4.438 1.444l8.012 2.435c1.107.34 2.9.747 3.762 1.371-.612.128-2.271-.431-2.937-.633-3.715-1.128-7.443-2.242-11.155-3.384-.268-.083-.603-.221-.874-.207.097.176 3.584 1.822 3.9 1.766 1.342-.236 1.218.32 2.57 1.084.755.428 7.395 2.815 7.439 3.37-.657.129-6.039-2.272-6.96-2.665 1.027 1.03 2.086 2.208 3.367 2.912.988.543 1.982 1.08 2.973 1.62-.266.491-.656 1.078-.957 1.561-.331-.255-.87-.644-1.273-.722-.533.259-.262.698-.526 1.029-.836-.706-5.311-6.823-6.368-6.094-.279.58-.257 1.988-.274 2.675-.65-1.128-2.323-3.078-3.315-3.898.493 1.745 1.282 3.547 1.804 5.355-1.639-1.487-3.113-3.068-4.706-4.596a1.2 1.2 0 0 0-.63-.283c-.653.219-.65 1.105-.63 1.704.054 1.6-.044 3.25-.002 4.842-1.192-1.22-2.392-2.519-3.461-3.837-.639-.786-1.656-2.174-.96-3.17.25-.357.699-.365 1.104-.433-.071-1.4-.454-2.85-.392-4.23.046-1.024 1.2-.501 1.776-.965.114-.74-1.23-2.027-1.917-2.14-.526-.088-1.383.693-1.763 1.079-1.22 1.227-3.218 2.648-3.614 4.418-.173.772 1.83 2.98 2.357 3.567 2.017 2.248 4.128 4.445 5.881 6.91-1.36-.947-4.45-3.493-5.617-4.067-.084.599-.085 1.26-.1 1.87-.57-.613-1.711-1.553-2.378-2.067-.458.476-.623.719-.952 1.286.259.949.61 1.77.978 2.68-1.417-1.098-2.81-2.224-3.433-4.005-.166-.473-.26-1.319-.028-1.774.808-.535 1.667.528 2.246-.048.112-.569-.827-2.91-1.363-3.19-1.087-.062-2.956 1.461-3.817 2.143l1.628.008c-2.213 1.206-4.687 1.825-6.724 3.538-.495.416-1.607 1.392-2.236 1.36-.23-.173-.17-.075-.218-.37.2-.413 1.293-.87 1.786-1.191 1.408-.92 3.194-2.254 4.392-3.405-.973.333-6.7 2.867-7.13 2.766l.139.042-.123-.115c.098-.219.55-.543.778-.636 2.419-.988 4.877-1.925 7.25-3.02.74-.343 1.413-.97 2.02-1.51-1.707.603-9.42 3.105-10.766 3.081l-.028-.163-.117.116.15.036q.017-.081.043-.193c3.746-1.4 7.78-2.28 11.533-3.666.275-.102.761-.527.924-.667-1.221.26-12.525 2.598-12.986 2.483l-.08-.21c.339-.431 13.687-2.686 15.38-3.263l.017-.115c-.808-.133-2.364.21-3.24.303-1.364.145-11.847 1.278-12.288 1.13-.138-.046-.136-.098-.2-.222.168-.184.644-.227.893-.246 5.125-.392 10.337-1.2 15.46-1.483l.033-.078c-.448-.317-13.933.055-15.617-.127-.262-.028-.48-.01-.784-.133l.087-.096c1.047-.335 7.16-.143 8.828-.216 2.66.03 5.625.068 8.28.01.08-.203.199-.163.211-.435-.076-.082-.317-.165-.435-.216.441.016.623.093.912-.162l-.033-.145c-.29-.17-.373-.166-.713-.186-1.638-.472-15.663-4.584-16.238-5.016l-.006-.154c.502-.212 2.96.677 3.662.889l8.626 2.592c.661.2 3.142 1.025 3.647 1.114l.058-.062c-.776-.422-2.907-1.216-3.84-1.603l-8.464-3.522c-.818-.345-2.378-.856-2.967-1.357l.095-.187-.152.096.096-.092c.833.054 3.45 1.258 4.408 1.652l7.04 2.9c1.444.6 3.02 1.309 4.474 1.829-1.944-1.195-14.58-7.51-15.023-8.272l.112-.084c.828-.088 12.718 6.924 14.718 7.646l.037-.043c-1.063-.78-2.262-1.506-3.369-2.244l-6.833-4.57c-1.06-.71-2.098-1.468-3.19-2.132-.197-.12-.263-.224-.318-.436.446-.335 2.188 1.17 2.688 1.428 1.114.576 10.814 7.44 11.241 7.457-.15-.44-10.904-8.85-12.061-9.96-.204-.196-.453-.29-.604-.626l.127-.184c.432.015 3.338 2.532 3.84 2.942l6.75 5.514c.398.327 2 1.757 2.322 1.846-.105-.47-11.414-11.111-11.58-11.768l.15-.119h.2c2.955 2.773 8.84 8.772 11.429 11.348l.089-.041c-.136-.312-1.69-2.107-2.043-2.532l-5.59-6.825c-.511-.626-2.539-2.813-2.55-3.455l.15-.02c.622.391 1.764 1.976 2.307 2.625l5.276 6.392c1.017 1.246 2.11 2.668 3.185 3.837-.599-1.098-1.745-2.664-2.47-3.753l-4.557-6.845c-.545-.81-1.93-2.66-2.178-3.444l.059-.107c.554.104.744.672.995.99.953 1.208 7.973 12.312 8.43 12.525-.05-.317-1.133-2.227-1.37-2.666l-4.25-7.97c-.62-1.16-1.375-2.392-1.884-3.59-.112-.262-.086-.272.011-.467.563.309 1.595 2.552 1.948 3.21l3.892 7.251c.718 1.348 1.565 3.084 2.362 4.333-.65-2.096-6.451-14.921-6.283-15.79.531.177 1.618 3.225 1.914 3.937l3.006 7.229c.592 1.44 1.238 3.166 1.917 4.531-.343-1.378-.9-3.054-1.318-4.432l-2.362-7.77c-.35-1.149-.793-2.54-1.116-3.713-.044-.16.073-.297.159-.403.16.034.193.004.26.214.384 1.203.754 2.485 1.12 3.687l2.545 8.347c.182.614.843 3.086 1.113 3.435.123.27.16.329.34.564.134-.147.099-.546.108-.792l.122.373.066.011c.019-.769-.306-3.403-.392-4.265l-.901-8.992c-.068-.685-.365-3.036-.216-3.528m12.364 27.015c-.229-.325-1.756-.904-2.146-.993.633.722 1.116 1.216 2.146.993"/><path fill-opacity=".984" d="M116.521 72c-.865-.247-1.522-.434-2.323-.865-4.95-2.663-4.881-10.55.035-13.233a7.05 7.05 0 0 1 5.397-.523 6.95 6.95 0 0 1 4.153 3.42c.967 1.816 1.108 4.303.502 6.255a7 7 0 0 1-3.429 4.151c-.768.397-1.406.556-2.225.795zm1.253-.642c6.323-.652 7.469-9.046 3.285-12.409a5.46 5.46 0 0 0-3.506-1.212c-8.112.438-7.619 13.673.221 13.62m60.884-3.684c-.387.994-1.2 3.595-2.007 4.054l-.204-.076c-.173-.356.089-1.02.275-1.322 1.083-1.762 4.703-11.967 5.677-12.8.359-.125.605-.09.803.289.492.939.874 1.96 1.286 2.941l2.99 7.13c.289.687 1.157 2.877 1.484 3.433l.037.061v.243l-1.172-.051c-.429-1.175-1.154-2.728-1.661-3.906zm.32-.633 3.607.008h3.343c-.395-.957-3.201-7.813-3.569-8.19-1.026 2.572-2.252 5.674-3.381 8.182M0 57.49l1.246.016 3.303 8.165c.58 1.433 1.246 3.203 1.89 4.585.295-.954.704-1.905 1.082-2.831 1.276-3.128 2.51-6.275 3.81-9.392.082-.195.172-.388.36-.495l.441-.009c.06.202.02.368-.072.557-.817 1.663-5.072 13.165-5.697 13.474-.211-.001-.342.04-.504-.118-.543-.53-4.156-9.738-4.752-11.175C.8 59.524.477 58.36 0 57.743z"/><path fill-opacity=".98" d="M87.101 21.27c-4.39-.97-8.898-1.729-13.307-2.634-.463-.095-1.278-.31-1.63-.625 1.049-.2 11.913 2.245 13.784 2.54.641.1 2.568.628 3.139.536.339.02.423.016.712.186l.033.145c-.29.255-.47.178-.912.162-.114.015-1.523-.272-1.819-.31"/><path fill-opacity=".984" d="m87.185 21.996-9.425-.921c-.92-.09-5.269-.364-5.662-.789l.098-.108c.747-.136 3.739.24 4.713.335l9.464.927q1.494.153 2.983.355c-.013.273-.132.233-.212.436-.407-.161-1.473-.203-1.959-.235"/><path fill-opacity=".976" d="M92.928 16.63c.027-.367-.414-2.362-.578-3.2-.825-4.23-1.752-8.57-2.53-12.82l.092-.195c.57.37.87 2.86 1.024 3.629l1.2 5.924c.16.787 1.224 5.863 1.24 6.433-.008.245.026.644-.108.791a2.2 2.2 0 0 1-.34-.563M94.153 0h.438l.004 11.847c-.001.678-.058 4.704.04 5.154-.21.012-.357.047-.525-.066l-.036-.202c.116-.38.07-4.317.07-5.005z"/><path fill-opacity=".102" d="M94.591 0h.113l-.008 10.005c0 .767-.092 5.02.143 5.306-.012.557-.117 1.137-.203 1.69-.098-.45-.042-4.476-.04-5.155z"/><path fill-opacity=".106" d="M94.054 0h.1l-.01 11.728c.002.688.047 4.625-.068 5.005-.11-.337-.208-1.482-.2-1.843a.65.65 0 0 0 .174-.428c-.011-2.994-.02-5.99-.016-8.983.003-1.809-.055-3.676.02-5.479"/><path fill-opacity=".965" d="M114.252 26.175c.608.106 1.801.272 2.264.652-.466.25-2.815-.252-3.383-.431.39-.014.837.026 1.119-.22"/><path fill-opacity=".204" d="M87.188 21.996c.485.033 1.552.074 1.958.235-2.654.058-5.62.021-8.279-.01.291-.209 5.412-.031 6.255-.091z"/><path fill-opacity=".059" d="M95.49 13.877c.141.622-.129.47.174.914-.007.347-.383 1.918-.477 2.33.009-.64.161-2.678.302-3.244"/><path fill-opacity=".098" d="M87.104 21.269c.296.04 1.704.326 1.818.311.119.05.36.134.436.216a92 92 0 0 0-2.983-.356c.31-.024.462-.017.729-.171"/><path fill-opacity=".039" d="M95.754 17.149c.042-.778.238-1.703.442-2.454l.212.25q-.3 1.11-.654 2.204"/><path fill-opacity=".439" d="M100.26 19.784c-.34.174-.419.206-.795.269.077-.156.532-.353.717-.448z"/></g><defs><clipPath id="a"><path fill="#fff" d="M0 0h189v72H0z"/></clipPath></defs></svg>