<svg width="168" height="70" viewBox="0 0 168 70" fill="none" xmlns="http://www.w3.org/2000/svg">
<path d="M67.4619 48.1377C75.4865 47.8439 78.8856 54.6808 77.2715 61.832C76.4059 65.6672 73.8146 68.1088 70.1729 69.3076C69.2883 69.5987 68.4002 69.7646 67.501 70H64.9336C63.271 69.6619 61.8467 69.2768 60.4336 68.2852C56.6104 65.6019 56.0406 60.9412 56.7969 56.6055C57.7201 51.3127 62.3744 48.2996 67.4619 48.1377ZM52.501 48.5039C52.4981 55.5527 52.6189 62.9787 52.4844 69.999H52.041L42.4053 58.1045L39.4365 54.4189C38.9612 53.8298 38.249 52.8998 37.749 52.377L37.752 64.1934C37.7509 65.759 37.6813 68.1501 37.7646 69.666C37.2113 69.619 36.9242 69.6086 36.3711 69.6377L36.3633 48.5186C37.0978 48.5177 38.0077 48.4923 38.7256 48.5361C39.407 49.2765 39.9994 50.0693 40.6328 50.8486C44.1554 55.1828 47.5677 59.6254 51.1094 63.9424L51.124 48.5078L52.501 48.5039ZM86.4209 48.5088C89.5192 48.5075 92.2752 48.2708 94.6943 50.6143C96.4324 52.2977 96.3829 55.385 94.6973 57.0488C93.3963 58.3335 91.6212 58.9298 89.8994 59.2871C90.6574 60.314 91.6059 61.4365 92.4492 62.4053C94.4959 64.7558 96.4261 67.2869 98.4834 69.6191C97.879 69.6773 96.6845 69.8149 96.1143 69.999H94.6045C93.9868 68.9509 93.1075 67.8002 92.3906 66.7969L89.0801 62.1396C88.6913 61.5952 87.4904 59.9958 87.2285 59.4961C86.6043 59.5041 85.3652 59.5514 84.791 59.502C84.832 62.6686 84.6579 66.6258 84.8154 69.6611C83.8959 69.5875 82.5187 69.5899 81.5762 69.625L81.5752 55.2432C81.5756 53.0572 81.6295 50.6704 81.5742 48.5117L86.4209 48.5088ZM4.72168 48.5117C7.28426 48.505 8.8436 48.2881 11.3311 49.4131C14.7024 50.9379 15.3543 55.4114 12.8066 58.0166C10.5535 60.3208 6.49742 60.2909 3.4043 60.2383C3.31026 60.2364 3.21585 60.232 3.12207 60.2246L3.12793 66.3574C3.12755 67.364 3.09017 68.6796 3.14258 69.666C2.23239 69.5696 0.945364 69.6023 0 69.6025V48.5117H4.72168ZM144.66 58.5635C144.869 62.2327 145.141 65.9789 145.296 69.6445C144.377 69.5777 142.948 69.5835 142.027 69.6445C141.765 67.3166 141.722 63.9894 141.593 61.5889C141.449 58.9242 141.233 55.8458 141.183 53.2119C141.174 52.6387 141.126 52.0687 141.085 51.4971C140.501 52.4621 139.728 54.4052 139.251 55.4736L135.12 64.6924C134.784 65.4447 133.17 69.4325 132.658 69.6582C132.102 69.3917 125.638 54.3455 124.301 51.9561C124.417 54.5386 124.171 57.7531 124.019 60.3877C123.845 63.4012 123.769 66.6771 123.496 69.6494C123.05 69.6044 122.58 69.6274 122.132 69.6367C122.081 66.548 122.615 63.235 122.642 60.1445C122.674 56.2732 123.182 52.3747 123.22 48.5215C124.212 48.4997 125.273 48.5188 126.271 48.5195C128.051 52.0623 129.624 55.8477 131.348 59.4316C132.138 61.0762 132.89 62.9777 133.768 64.5488C134.257 63.2008 134.952 61.7791 135.525 60.4668L139.552 51.3105C139.956 50.3794 140.411 49.4534 140.789 48.5166L144.159 48.502L144.66 58.5635ZM109.259 47.9004C109.59 48.0112 109.775 48.3981 109.919 48.707C110.892 50.7908 111.779 52.9215 112.714 55.0234L119.196 69.6484C118.278 69.5611 116.636 69.607 115.661 69.6045C114.829 67.9408 113.975 65.654 113.21 63.8613L109.472 63.8594C107.804 63.8625 105.328 63.9413 103.726 63.8291C102.895 65.6952 102.093 67.7174 101.308 69.6182C100.649 69.6023 100.161 69.5843 99.5 69.6572C100.073 68.4502 100.566 67.2206 101.113 66.0029L106.871 53.0469C107.41 51.8576 108.561 48.8558 109.259 47.9004ZM23.2393 47.8848C23.5077 47.9666 23.7002 48.3236 23.8164 48.5693C24.9627 50.9931 26.0248 53.4719 27.1074 55.9268L33.1699 69.6533C32.3042 69.5582 30.5747 69.6078 29.6289 69.6025C28.7927 67.8584 27.9804 65.6885 27.1963 63.8594H23.501C21.9388 63.8628 19.1511 63.9513 17.6865 63.8242L15.2842 69.6201C14.6296 69.6039 14.1421 69.5877 13.4844 69.6543L19.7666 55.4961L21.5645 51.4043C21.9935 50.4114 22.6473 48.7368 23.2393 47.8848ZM158.097 47.959C158.694 48.1641 159.466 50.3233 159.733 50.9453L161.387 54.7188C162.883 58.1694 164.488 61.6443 166.007 65.0918C166.408 66.0011 167.49 68.7233 167.962 69.3926L167.999 69.4434V69.6211C166.903 69.5749 165.605 69.6059 164.501 69.6074C163.723 68.2982 162.754 65.4303 162.009 63.8662C158.846 63.8551 155.663 63.8921 152.503 63.8525C151.991 65.3291 150.747 68.149 150.093 69.6455C149.416 69.6104 149.019 69.5931 148.348 69.6514C150.206 65.3432 152.099 61.0498 154.026 56.7725C154.523 55.6504 157.614 48.3474 158.097 47.959ZM66.3975 49.457C64.4795 49.8736 62.6631 51.4025 61.6211 53.0449C59.7946 55.9243 59.6227 59.5703 60.3438 62.8379C60.7938 64.8767 61.6995 66.8086 63.4912 67.9668C64.9138 68.8862 66.0743 68.9254 67.6953 68.8828C75.0832 68.1002 76.1002 54.9506 71.1465 50.8457C69.8811 49.7974 67.9824 49.5132 66.3975 49.457ZM22.4092 52.4756C21.2833 55.0599 20.2524 57.7659 19.125 60.3535C18.8445 60.9973 18.4795 62.0234 18.1934 62.6025L22.5986 62.6084C23.9339 62.6076 25.3826 62.6355 26.709 62.5898C25.6079 60.3655 24.7585 57.7888 23.7383 55.5049C23.3692 54.6785 22.9074 53.2051 22.4092 52.4756ZM108.411 52.4736C107.123 55.5859 105.577 59.6051 104.153 62.6006L108.487 62.6084C109.855 62.6073 111.299 62.6304 112.66 62.5938C112.278 61.6129 108.649 52.676 108.411 52.4736ZM157.277 52.4697C155.752 55.5207 154.519 59.5419 152.954 62.6035L157.212 62.6094C158.623 62.6077 160.1 62.6255 161.505 62.5977C161.15 61.8274 157.422 52.5979 157.277 52.4697ZM6.36914 49.7129C5.37076 49.8108 4.07092 49.936 3.12988 50.2549C3.13185 53.1879 3.1949 56.3587 3.12305 59.2744C4.33846 59.2391 6.63119 59.3294 7.67676 59.0166C9.14321 58.4672 9.68094 58.0988 10.376 56.6836C11.9061 53.5676 10.187 49.3591 6.36914 49.7129ZM90.1514 50.1016C89.2014 49.6623 88.4732 49.7347 87.4658 49.7949C86.4531 49.9299 85.8011 50.0477 84.7998 50.2607L84.8057 58.6221C86.3436 58.6028 88.0513 58.6638 89.5244 58.2412C90.6654 57.8313 91.6151 57.3066 92.168 56.1436C92.6749 55.078 92.6584 53.5232 92.2598 52.4219C91.8865 51.3978 91.1291 50.5637 90.1514 50.1016ZM51.377 17.7002C51.7394 17.5946 52.3748 17.8598 52.7021 18.041C54.4984 19.0356 56.2926 20.0434 58.0801 21.0557C59.9564 22.1182 61.9435 23.0635 63.6982 24.3223C65.0298 25.2841 65.6825 26.6525 66.7549 27.7646C67.3213 28.3519 68.6657 29.1639 69.3955 29.7197L69.3965 29.7217C70.2595 30.1345 71.8547 31.186 72.498 31.8662C71.6243 31.4781 70.1101 30.772 69.3281 30.2363C69.4997 30.2192 69.759 30.2942 69.9365 30.334C69.9351 30.3328 69.934 30.3312 69.9326 30.3301C69.7553 30.29 69.499 30.2174 69.3291 30.2344C68.1965 29.694 66.1645 28.6988 65.2217 27.9111C64.7101 27.3234 64.5149 26.4788 63.8125 26.0605C62.3869 25.2119 60.7304 25.0823 59.3643 24.0693C58.351 23.3181 57.4031 22.5737 56.4824 21.7061C56.6805 22.4999 57.2063 23.8704 57.5146 24.6553C56.8747 24.127 55.2189 22.243 54.6221 21.5928C53.9598 20.8712 52.1924 19.0287 51.7285 18.3008C50.7814 19.4756 49.8131 21.0093 48.9541 22.1914C47.2566 24.5272 47.1861 24.3514 49.5293 25.8906C50.576 26.5782 51.7089 27.3553 52.5918 28.0586V28.0596C53.2067 28.3679 54.7248 29.505 55.3281 29.957C54.9437 30.2019 52.7584 28.7902 52.4062 28.4961C52.518 28.511 52.6426 28.5481 52.7695 28.5918C52.6433 28.5483 52.5194 28.511 52.4082 28.4961C51.293 27.9888 45.6097 24.3766 45.0303 24.6016C44.4257 24.8362 42.4218 28.067 41.7363 28.8477C39.9704 30.8589 38.068 32.5533 35.9258 34.1445C35.0441 34.7995 34.1101 35.3821 33.2441 36.0586L33.1035 35.6533C33.5055 35.2376 35.0958 33.8005 35.1592 33.4346C34.7497 33.2501 32.7701 34.1968 32.1475 34.3467C32.959 33.7255 34.6631 32.1608 35.2393 31.3232C34.0945 31.66 32.1397 32.9577 31.0156 33.6221L21.5205 39.25C20.7917 39.6843 15.1384 43.4715 14.6816 42.2305C15.6921 41.5373 18.4432 39.7346 19.1221 39.0039C16.2539 39.9524 14.7194 42.0089 11.291 42.6963C13.7167 40.6589 17.3442 38.4833 20.0381 36.7354C22.2266 35.3154 23.8425 34.0326 25.9062 32.5479C22.1077 32.0875 20.6746 32.6229 18.1611 35.2842C16.9159 36.6026 14.2747 38.2195 12.6143 38.7852C13.2196 38.3608 16.5368 35.7808 16.6758 35.3193C16.2041 35.1118 13.1155 36.7814 12.3711 37.0859C13.3456 36.1985 14.0314 35.5554 15.2529 34.9912C15.6188 34.8223 17.7791 33.8811 17.8711 33.7549C17.6978 33.5858 17.358 33.5786 17.1279 33.584C15.4795 33.6226 11.6911 36.2368 9.94336 37.0361L9.94434 37.0371C9.62172 37.3137 6.19338 39.1125 5.80859 39.248L5.81445 39.1855C6.35475 38.7393 9.20694 36.8993 9.85645 36.6035V36.6025C10.0309 36.4935 10.1275 36.456 10.1973 36.2568C9.83839 36.0401 7.82659 37.2687 7.30273 37.4492C6.84481 37.344 6.45769 37.8476 5.99023 37.8682L5.98926 37.8701C6.45737 37.8508 6.84439 37.3451 7.30273 37.4502C7.04999 37.6719 0.462857 41.0257 0 41.1934V40.999C2.4327 39.6091 4.90242 38.0326 7.3252 36.6875L7.32617 36.6865C8.80808 35.9599 10.488 34.6769 12.1191 33.9678C13.4288 33.3984 14.6514 33.0348 15.9316 32.4062C17.0545 31.8549 18.5344 30.7578 19.6865 30.458C21.5681 29.9684 26.4219 32.3617 28.0654 31.3506C29.6255 30.3909 32.7663 28.5274 34.1367 27.2041C34.6129 26.7443 35.4842 25.2535 36.0117 24.9434C37.5103 24.0626 39.3413 23.2771 40.8857 22.5342L47.0215 19.6123C48.4397 18.9343 49.871 18.1391 51.377 17.7002ZM127.02 17.876C127.718 18.4189 127.819 18.9172 128.705 19.5039C130.43 20.6462 132.403 19.6829 133.83 20.4844C134.586 20.9087 136.217 22.3495 136.947 22.9629C138.423 24.1986 139.907 25.4245 141.399 26.6396C142.773 27.7607 143.488 28.6793 145.396 28.4414C148.029 28.1129 150.222 27.1192 152.566 25.9199C153.321 25.5339 155.279 24.013 156.018 24.7109C157.494 26.1043 158.775 27.7367 160.206 29.1855C162.56 31.7366 165.107 33.372 167.953 35.2969C164.057 33.8687 161.958 32.2874 159.019 29.2412C158.675 28.8854 157.02 27.0015 156.766 26.8545C155.42 27.6735 157.966 29.3871 158.552 29.9805C156.812 29.2196 156.344 28.4533 154.409 28.6543C155.261 29.9407 157.237 32.4237 158.252 33.7002C158.14 33.6341 157.975 33.5211 157.87 33.4639C156.864 32.9159 154.43 28.9433 153.446 28.9043C152.771 29.0847 151.398 30.1997 150.918 30.7207C152.848 32.1214 154.762 33.5447 156.661 34.9893C157.741 35.8024 159.947 37.3665 160.721 38.3477C159.814 38.0025 158.638 37.2217 157.784 36.707C153.762 34.2816 151.491 31.4833 146.529 30.9697C147.087 31.5022 147.684 32.0387 148.146 32.6553L148.146 32.6562C148.483 32.9236 148.944 33.25 149.181 33.5928L149.16 33.7002C148.847 33.6466 148.207 33.1212 147.906 32.9033C148.01 32.8484 148.044 32.8374 148.066 32.8145C148.044 32.8367 148.009 32.8483 147.907 32.9023C145.044 30.801 142.301 28.5138 139.515 26.3096C136.615 24.0157 135.56 22.4524 131.636 22.2637C132.231 22.9237 133.703 23.569 134.087 24.1621C134.954 25.5029 135.342 26.4214 136.44 27.6807L136.439 27.6816C136.782 27.9775 137.316 28.3447 137.542 28.6826L137.531 28.8008C137.204 28.7591 136.519 28.1681 136.227 27.9414L136.228 27.9404L135.837 27.6055C135.435 27.2683 135.003 26.9326 134.573 26.6719C134.98 28.4182 135.498 29.4504 137.031 30.4326C137.826 30.9419 139.031 31.4314 139.716 31.8945C140.068 32.054 140.576 32.3248 141.084 32.6055L142.461 33.377L143.114 33.7119C143.762 34.0563 144.396 34.4246 145.041 34.7783C145.88 35.2381 146.928 35.6532 147.659 36.2676C147.443 36.3435 142.893 34.2044 142.366 33.9473C142.259 33.8947 142.152 33.841 142.045 33.7871C142.043 33.7872 142.041 33.787 142.039 33.7871C138.125 31.9498 134.388 30.4638 131.178 27.3828C130.513 26.7439 129.768 26.2473 129.234 25.4648C129.237 25.4662 129.24 25.4674 129.242 25.4688C129.241 25.4671 129.239 25.4655 129.238 25.4639C130.077 25.9118 132.008 27.5122 132.983 28.1592C133.669 28.4648 134.473 28.9088 135.166 29.1123C133.068 25.5376 130.301 22.1495 127.442 19.1553C126.543 21.1956 125.882 23.1571 125.054 25.1904C125.987 24.8319 127.393 24.1321 128.236 23.8965C125.962 26.2535 121.788 28.6703 118.849 30.124C118.545 30.2742 117.445 30.8303 117.164 30.917C116.985 30.9415 116.789 30.9955 116.639 30.9189L116.921 30.4775C118.053 29.6532 119.375 29.0983 120.646 28.1318C119.802 28.4805 109 30.9396 108.675 30.8027C109.378 30.2654 112.786 29.4778 113.819 29.0537C115.753 28.2601 116.706 28.4752 117.992 26.502C115.783 27.7324 111.365 29.1348 108.409 29.9453L107.243 30.2539C106.541 30.5152 103.561 31.3893 102.957 31.3359L102.974 31.2744C104.471 30.8605 105.721 30.0861 107.165 29.6738L109.704 28.4395C112.216 27.1983 114.653 25.9092 117.049 24.3379C119.346 22.8307 121.634 21.2684 123.94 19.7744C124.578 19.3617 126.382 18.0928 126.992 17.8555L127.02 17.876ZM33.2432 36.0596C32.9866 36.2445 32.6122 36.5346 32.3359 36.6582L32.3389 36.6602C32.0806 36.8688 32.0494 36.9703 31.7734 36.9766C31.8171 36.7447 31.8843 36.7551 32.1035 36.5586L32.1016 36.5576C32.3856 36.2686 32.7919 35.9289 33.1035 35.6543L33.2432 36.0596ZM19.7559 31.2676C19.3204 31.4538 17.8001 32.3061 17.6807 32.7393L17.7783 32.8145L17.9922 32.7666C18.5032 32.5596 19.9683 32.0726 20.1572 31.6348C20.0881 31.3938 20.0042 31.3528 19.7559 31.2676ZM116.636 30.9199C116.786 30.9967 116.982 30.9425 117.161 30.918C116.923 31.0708 115.011 31.8694 114.828 31.8613L114.805 31.915L114.832 31.8262C115.326 31.4099 116.339 30.7846 116.919 30.4785L116.636 30.9199ZM40.417 26.9463C39.9864 27.3916 36.4699 30.0467 36.4316 30.208L36.5244 30.2686C37.5101 30.1115 38.2696 29.7946 39.0381 29.127C39.5319 28.698 40.57 27.7169 40.4678 26.998L40.417 26.9463ZM106.614 30.2061L106.613 30.208C106.719 30.2018 106.831 30.1884 106.938 30.1895C106.831 30.1885 106.72 30.1998 106.614 30.2061ZM160.472 26.875C160.524 26.888 160.584 26.8996 160.633 26.9248C162.07 27.6733 163.556 28.3363 164.991 29.0898C165.37 29.2892 166.436 29.7253 166.57 30.0791C166.055 30.0259 160.818 27.4346 160.469 27.1113L160.472 26.875ZM53.2812 28.7891C53.2803 28.7884 53.2792 28.7878 53.2783 28.7871C53.165 28.7424 53.0352 28.6896 52.9033 28.6396C53.0365 28.6901 53.1673 28.7442 53.2812 28.7891ZM105.57 24.4062C106.696 25.1332 108.656 26.1744 109.623 27.0098C108.855 26.7781 106.164 25.442 105.57 24.9463C105.727 24.8746 105.674 24.9221 105.774 24.7754L105.57 24.4062ZM83.9531 0C88.0391 3.70838 91.3992 8.65132 96.6631 10.8916C98.6622 11.7427 100.777 12.324 102.565 13.6318C105.729 15.8597 107.285 18.1805 110.885 20.0039V20.0049C111.347 20.2236 113.191 21.0057 113.323 21.2979C112.786 21.2979 111.12 20.6182 110.57 20.373C110.716 20.3729 110.824 20.3977 110.953 20.3965C110.825 20.3974 110.717 20.3729 110.572 20.373L109.556 20.0488C110.016 20.6634 110.284 21.0282 110.835 21.5566C109.525 21.1449 108.927 20.3011 107.911 19.4541C106.021 17.8792 104.223 15.8632 102.207 14.4717C102.761 15.4229 103.324 16.1473 103.903 17.0186C105.337 19.1773 106.169 20.2691 108.177 21.6572L108.595 21.9395C109.862 22.7707 112.796 24.224 113.701 24.9658L113.704 25.0518C113.032 24.9469 109.034 22.9193 108.441 22.5156C104.805 20.8823 104.27 17.7092 101.492 15.3779C98.6646 13.005 94.8671 11.1788 91.8369 9.02832C89.4687 7.34759 87.5894 5.13157 85.6748 2.96582C85.0711 2.2831 84.3181 1.4803 83.7529 0.791016C82.9941 2.05251 82.0924 3.49384 81.4404 4.79883C81.7351 5.18659 83.7584 4.14872 84.3193 4.60254C86.7203 6.5461 88.675 9.10845 91.0596 11.1133C92.6362 12.4434 93.8984 13.1323 95.1748 14.7207C95.8302 15.5644 96.4752 16.5126 97.1807 17.2832C97.0461 16.7154 96.931 16.2086 96.7432 15.6533C97.8063 16.2998 100.604 17.9458 101.24 18.8008C102.954 21.1067 102.954 22.4888 105.568 24.4053L105.772 24.7754C105.672 24.9216 105.725 24.8736 105.568 24.9453C104.55 24.5101 100.742 22.5195 100.125 21.5713C99.7206 20.9591 99.6323 19.9654 99.0352 19.5039C98.2008 18.8012 96.1945 18.4682 95.6875 17.3848C94.3241 14.4725 92.3366 13.764 90.1562 11.7793C88.0604 9.87132 86.1661 7.30687 84.1006 5.26562C83.856 5.8575 83.0308 7.12312 83.0645 7.67773C83.1028 8.28851 85.184 9.92384 85.6133 10.2998C86.9126 11.4339 88.1999 12.5824 89.4746 13.7451C89.3975 13.9928 89.4535 13.9022 89.2266 14.084C87.3776 12.5759 85.4043 11.1829 83.5332 9.7002C83.1674 9.41028 82.7816 9.14402 82.3887 8.89258C82.3812 9.93206 81.6705 13.1279 81.3965 14.2832C81.3093 14.6507 80.8221 15.505 80.6836 15.9248C81.5734 16.7255 82.9472 17.6857 83.9307 18.4004L88.2822 21.5898C88.6902 21.8895 90.2307 22.9507 90.4883 23.25V23.251C91.0665 23.636 94.6107 26.2278 94.7607 26.5811C94.4335 26.5408 90.7119 24.1272 90.2422 23.7568C90.4653 23.7577 90.9281 23.9594 91.1045 24.0967L91.1055 24.0957C90.9289 23.9584 90.4662 23.7568 90.2432 23.7559C86.9613 21.9515 83.7729 19.3897 80.7402 17.1865C80.5107 17.0197 80.0818 16.766 79.8057 16.7891C78.9513 17.3583 78.4392 19.1701 77.3594 19.6943C73.795 21.423 71.6982 21.597 68.9668 24.876L68.7607 24.6338C69.2533 23.5369 70.3174 22.2062 71.334 21.5391C71.6431 21.3362 72.0758 21.2414 72.2549 20.9922L72.2266 20.8711C71.7824 20.7729 68.5078 21.7955 67.8477 21.9248C67.5684 21.9796 67.0811 22.288 66.8477 22.0371C67.856 21.2913 75.2407 18.3701 75.498 17.8164L75.4141 17.707C74.4639 17.5717 67.2137 20.5222 65.6982 20.9473C68.403 18.9809 71.3911 16.1725 73.2773 13.4014C72.5484 13.6641 71.1698 14.6385 70.4707 15.1113L64.6152 19.0742C63.5791 19.7774 62.4188 20.6443 61.2988 21.2002C60.3361 21.678 59.6339 21.0943 59.0508 20.3359C60.6088 19.3066 61.6412 19.0069 63.2266 17.5713C64.6218 16.3077 66.2049 14.2634 67.6318 13.3076C70.0879 11.6622 72.4436 11.6532 74.7383 9.33398C75.7288 8.33303 76.0972 7.71653 76.9248 6.73828C78.6518 4.6972 80.8324 1.55729 82.8711 0H83.9531ZM68.9648 24.875C68.6319 25.4525 68.3587 25.7429 67.8906 26.2051C68.1364 25.6773 68.4646 25.139 68.7588 24.6328L68.9648 24.875ZM108.641 22.5254C108.839 22.5517 109.032 22.6222 109.225 22.6826C109.032 22.6222 108.839 22.5516 108.641 22.5254ZM100.435 18.8838C99.9713 20.6784 100.994 22.2196 102.849 22.4893C102.739 22.0518 100.764 19.1009 100.435 18.8838ZM89.4756 13.7461C90.1361 14.2827 91.7847 15.6491 92.1973 16.3574C91.7109 16.0038 89.6107 14.4434 89.2266 14.085C89.4538 13.9029 89.3985 13.9939 89.4756 13.7461Z" fill="black"/>
</svg>
